<svg width="200" height="200" viewBox="0 0 200 200" fill="none" xmlns="http://www.w3.org/2000/svg">
<path d="M194 96.685C192.977 99.0916 191.092 100.388 188.664 101.254C184.58 102.721 180.561 104.345 176.556 106.003C174.108 107.016 171.851 107.143 169.653 105.416C169.436 105.305 169.195 105.247 168.95 105.247C168.706 105.247 168.465 105.305 168.248 105.416C164.982 107.446 161.756 109.544 158.554 111.599C160.659 122.003 155.861 127.741 145.742 127.046C143.676 134.608 140.782 136.853 132.552 137.132C132.21 140.713 130.78 143.784 127.657 145.853C124.533 147.922 121.292 148.162 117.703 147.14C116.651 152.217 113.816 155.534 108.69 156.634C103.471 157.749 99.8776 154.653 96.005 151.674C95.1433 152.652 94.3404 153.631 93.4836 154.545C90.7028 157.524 87.31 158.674 83.3444 157.612C79.3787 156.551 77.0385 153.875 76.0643 149.908C75.9739 149.61 75.8148 149.338 75.5996 149.113C75.3845 148.888 75.1193 148.716 74.8256 148.612C68.9996 147.947 66.2922 145.614 64.843 139.842C64.7945 139.675 64.734 139.511 64.6619 139.353C57.6168 138.448 54.8213 136.051 53.6463 129.922C43.9917 128.347 40.3639 122.634 44.0113 114.407C43.3895 113.952 42.7481 113.428 42.0529 112.983C38.4936 110.718 34.9442 108.439 31.331 106.267C30.8023 105.949 29.9553 106.125 29.2552 106.15C27.6592 106.209 25.8967 106.791 24.4965 106.311C19.4929 104.57 14.602 102.476 9.6425 100.559C7.78208 99.8399 6.86167 98.3089 6 96.685V93.7501C7.08198 91.1773 8.20802 88.6288 9.23615 86.0364C14.4257 72.9274 19.6006 59.8119 24.7608 46.6899C26.5038 42.2876 29.1671 41.0746 33.5733 42.7768C37.9796 44.479 42.4397 46.2741 46.8753 48.0008C49.6317 49.0769 51.0808 50.9943 51.0661 54.0123C51.1029 54.2748 51.1986 54.5256 51.3461 54.7458C51.4937 54.9661 51.6892 55.1501 51.918 55.2841C55.3678 56.9873 59.1592 57.8871 63.0071 57.9157C70.6838 58.0526 78.4436 57.9157 85.9098 60.3369C86.1855 60.377 86.4665 60.3608 86.7358 60.2894C87.005 60.2179 87.257 60.0927 87.4765 59.9212C88.145 59.3855 88.7643 58.7913 89.3271 58.1456C93.0626 54.2716 97.5913 52.9118 102.864 53.8069C105.802 54.296 108.778 54.7558 111.735 55.2303C113.694 55.5531 114.825 56.7369 114.673 58.3315C114.487 60.0288 113.096 60.9826 111.001 60.6891C107.672 60.2244 104.357 59.6619 101.033 59.1483C99.7304 58.9165 98.3907 59.0095 97.1327 59.4191C95.8747 59.8287 94.7373 60.5421 93.8215 61.4962C85.8608 69.4007 77.4547 76.7574 68.0841 82.9744C66.4586 84.0505 66.4782 85.0826 67.9861 86.325C71.1733 88.9468 74.7669 89.162 78.5514 88.0223C83.408 86.5549 87.3639 83.62 91.1434 80.3673C94.923 77.1145 97.8703 77.2074 101.4 80.6314C108.891 87.9098 117.762 91.3925 128.254 90.0473C129.207 89.9055 130.179 89.9658 131.107 90.2246C132.035 90.4833 132.898 90.9346 133.639 91.549C140.67 96.8464 147.783 102.031 154.961 107.324L166.779 99.7421L151.112 60.0777C149.286 60.738 147.588 61.2223 145.991 61.9462C140.425 64.4751 134.702 64.8811 128.783 63.5457C127.417 63.2375 126.002 63.1153 124.621 62.8658C122.766 62.5283 121.811 61.3495 122.007 59.7157C122.203 58.082 123.476 57.1918 125.36 57.4265C127.906 57.7526 130.444 58.1423 132.973 58.5956C135.82 59.0901 138.747 58.7975 141.438 57.7494C143.955 56.8298 146.461 55.8858 148.929 54.9711C148.958 50.652 149.844 49.3459 153.864 47.7416C158.231 45.997 162.606 44.2719 166.99 42.5665C170.627 41.1528 173.501 42.4099 174.965 46.0589C177.25 51.7819 179.521 57.513 181.78 63.2522C182.573 65.2577 182.098 66.7496 180.512 67.4295C178.926 68.1094 177.486 67.3268 176.634 65.1892C174.309 59.3538 172.003 53.5085 169.604 47.4579L154.427 53.4352L173.335 101.322L188.512 95.3447C186.353 89.8615 184.257 84.5298 182.147 79.2031C181.971 78.7482 181.746 78.308 181.609 77.8384C181.371 77.1697 181.399 76.4354 181.687 75.7867C181.975 75.1379 182.5 74.624 183.156 74.3508C183.483 74.2151 183.834 74.1454 184.188 74.1457C184.542 74.1461 184.892 74.2165 185.219 74.353C185.546 74.4894 185.843 74.6891 186.092 74.9406C186.341 75.1921 186.538 75.4904 186.671 75.8182C187.342 77.2514 187.866 78.7531 188.463 80.2205C190.3 84.7206 192.14 89.2223 193.98 93.7257L194 96.685ZM99.5545 147.492C101.097 148.588 102.492 149.59 103.887 150.554C104.253 150.773 104.649 150.938 105.062 151.043C106.295 151.441 107.63 151.386 108.826 150.887C110.022 150.388 111 149.479 111.584 148.324C112.778 145.932 112.186 143.608 109.958 141.886C108.553 140.801 107.128 139.744 105.758 138.619C104.289 137.401 104.015 135.914 104.984 134.623C105.953 133.331 107.593 133.18 109.199 134.344C109.89 134.833 110.546 135.4 111.231 135.914C113.571 137.68 115.863 139.529 118.281 141.182C118.865 141.605 119.527 141.908 120.228 142.075C120.93 142.242 121.657 142.27 122.369 142.156C123.081 142.042 123.764 141.788 124.378 141.411C124.992 141.033 125.525 140.538 125.948 139.954C127.696 137.509 127.113 134.417 124.523 132.417C122.252 130.656 119.955 128.929 117.698 127.149C116.23 125.985 115.951 124.424 116.881 123.148C117.86 121.778 119.436 121.646 121.077 122.825C121.87 123.392 122.624 124.018 123.402 124.61C126.08 126.64 128.694 128.768 131.47 130.666C132.063 131.078 132.731 131.368 133.437 131.52C134.142 131.673 134.871 131.684 135.581 131.553C136.291 131.422 136.968 131.151 137.572 130.757C138.177 130.363 138.697 129.853 139.103 129.257C140.787 126.762 140.209 123.852 137.634 121.876C134.971 119.826 132.298 117.782 129.644 115.717C128.601 114.901 127.848 113.761 128.587 112.553C129.216 111.661 130.137 111.015 131.191 110.728C131.813 110.562 132.773 111.217 133.434 111.706C137.154 114.485 140.812 117.356 144.532 120.134C147.563 122.394 150.804 122.091 152.797 119.406C154.652 116.931 153.981 113.477 151.147 111.374C144.319 106.31 137.465 101.281 130.584 96.2888C129.896 95.8241 129.073 95.602 128.244 95.6578C116.337 96.7632 106.213 92.8893 97.699 84.6961C96.5044 83.5467 95.8092 83.5075 94.5705 84.6032C90.4335 88.2767 85.9343 91.4512 80.5929 93.1436C75.0949 94.9094 69.8515 94.5817 65.0682 91.055C59.9129 87.2543 60.1724 81.8249 65.3326 78.0927C70.5809 74.3068 75.6139 70.1882 80.7202 66.236C81.1769 65.9458 81.6586 65.697 82.1596 65.4925L81.6994 64.6071C77.9492 64.2941 74.2039 63.9223 70.439 63.6827C65.8711 63.3892 61.2593 63.4674 56.7306 62.8707C54.0771 62.5234 51.5606 61.1636 48.8043 60.1951C43.5102 73.6791 38.2015 87.1663 32.8781 100.657L47.6782 110.043C49.1861 108.307 50.6157 106.546 52.1579 104.912C53.3601 103.641 54.8745 102.707 56.5503 102.203C58.2262 101.698 60.005 101.641 61.7099 102.037C63.4148 102.432 64.9861 103.267 66.2677 104.458C67.5492 105.65 68.4961 107.155 69.0143 108.825C69.2444 109.574 69.3864 110.342 69.5577 111.066C76.2993 111.594 78.8598 113.741 80.7349 120.482C87.0016 120.594 90.6734 123.818 91.7799 129.981C96.4065 129.863 99.8972 131.668 101.816 135.821C103.77 140.042 102.737 143.907 99.5545 147.492ZM30.391 47.4579L11.4784 95.3545L26.68 101.327C33.0446 85.244 39.2819 69.3958 45.5828 53.4401L30.391 47.4579ZM53.1909 124.253C53.705 123.999 54.9632 123.73 55.6731 122.957C58.2777 120.134 60.7991 117.219 63.1589 114.186C64.6276 112.328 64.0744 109.76 62.2776 108.278C60.569 106.869 57.9693 106.81 56.4369 108.463C53.8225 111.281 51.3452 114.23 48.9316 117.219C47.8006 118.618 47.8398 120.315 48.6819 121.89C49.524 123.465 50.8263 124.175 53.1909 124.253ZM75.2858 121.362C75.2188 120.443 74.9089 119.558 74.3877 118.797C73.8664 118.037 73.1526 117.428 72.319 117.033C71.4424 116.651 70.466 116.56 69.5341 116.775C68.6021 116.99 67.7641 117.499 67.1441 118.227C64.8593 120.78 62.635 123.377 60.471 126.019C58.6645 128.2 58.8358 130.861 60.7893 132.549C62.7427 134.236 65.4207 134.016 67.3007 131.893C69.5283 129.379 71.707 126.831 73.8269 124.219C74.4829 123.402 74.806 122.321 75.2858 121.362V121.362ZM97.464 140.121C97.4029 139.204 97.0931 138.321 96.5678 137.567C96.0425 136.813 95.3216 136.216 94.4824 135.841C93.606 135.457 92.6285 135.369 91.6975 135.59C90.7666 135.81 89.9328 136.328 89.3222 137.064C87.0571 139.623 84.8376 142.224 82.6639 144.865C80.8818 147.032 81.0825 149.757 83.0261 151.395C84.9698 153.034 87.6527 152.804 89.5376 150.681C91.7652 148.167 93.9439 145.619 96.054 142.997C96.7051 142.185 97.0038 141.089 97.464 140.121ZM86.3553 130.744C86.1252 128.758 85.0873 127.154 83.4178 126.43C82.5444 126.036 81.5655 125.941 80.6327 126.16C79.6999 126.378 78.8651 126.898 78.2576 127.638C75.9729 130.191 73.7502 132.79 71.5895 135.435C69.7584 137.655 69.9298 140.258 71.9126 141.96C73.8954 143.662 76.5881 143.369 78.429 141.29C80.6517 138.771 82.8352 136.227 84.9453 133.605C85.5818 132.793 85.8902 131.707 86.3553 130.744Z" fill="#0C2231"/>
</svg>
