<svg width="57" height="56" viewBox="0 0 57 56" fill="none" xmlns="http://www.w3.org/2000/svg">
<path d="M0.177646 43.9182C2.44772 42.3235 4.50894 40.8713 6.52331 39.4542L6.53892 6.43372H10.1617L10.1461 37.4457C11.8384 36.2648 14.817 34.2485 14.817 34.2485L16.0135 33.4794C15.9823 29.7708 16.0018 36.2121 16.0018 32.5034C16.0018 23.4973 16.0174 15.6331 16.0174 6.49813H19.6636L19.648 30.9439C22.0254 29.5463 23.7177 28.4415 26.0249 27.1006L26.0405 0.00607261H3.07428C2.63315 0.00607261 2.19202 -0.00759077 1.75089 0.00607261C1.20748 0.0397635 0.662499 0.0397635 0.119088 0.00607261C0.119088 0.00607261 0.119088 2.19807 0.119088 2.54356C0.119088 19.8531 0.103473 24.6704 0.107377 41.9722C0.103473 42.5734 0.152271 43.157 0.177646 43.9182Z" fill="#0C2231"/>
<path d="M49.9943 6.35957H36.2138C36.2138 19.2598 36.1904 10.9388 36.1904 24.0322L49.7796 32.5171C49.7796 32.5171 49.7894 28.2229 49.7894 25.1487C48.8271 25.0335 47.6735 25.0804 46.5629 25.055C45.4522 25.0296 44.2908 25.055 43.0748 25.055V18.8089H56.1799C56.1799 24.7056 56.1702 37.7327 56.1702 43.8617L51.8233 40.9943L44.7086 36.3995L34.6328 29.9016L30.364 26.9425C30.364 8.24512 30.3893 18.7445 30.3893 0.00610352H56.1546V14.7391H49.9943V6.35957Z" fill="#0C2231"/>
<path d="M10.7023 48.1188H0.0995483C9.32819 42.1225 18.6544 35.9701 28.1036 29.8313C37.4728 35.9213 46.8537 42.0561 56.1741 48.1188H45.5108C36.0362 41.9741 37.4103 42.8798 28.0802 36.8309C18.8301 42.8291 20.1418 42.0015 10.7023 48.1188Z" fill="#0C2231"/>
<path d="M39.0714 45.0113L42.905 44.984L43.6975 45.0055L35.0544 39.4015C24.2428 39.3274 31.2755 39.3508 20.7157 39.2786L12.1565 44.779C22.9486 44.8669 28.496 44.9254 39.0714 45.0113Z" fill="#0C2231"/>
<path d="M1.23753 55.8696H1.07747V54.6887L0.0605251 55.8696H0.0253906V54.3276H0.177639V55.53L1.20044 54.3276H1.23558L1.23753 55.8696Z" fill="#0C2231"/>
<path d="M2.34424 54.3276H2.49844V54.9757H3.2792V54.3276H3.4334V55.8696H3.2792V55.126H2.49844V55.8696H2.34424V54.3276Z" fill="#0C2231"/>
<path d="M4.39572 54.4799V54.3276H5.2409V54.4799H4.89541V55.8696H4.73926V54.4799H4.39572Z" fill="#0C2231"/>
<path d="M6.19733 54.3276H7.08154V54.4799H6.35153V54.962H7.07569V55.1123H6.35153V55.7194H7.07569V55.8696H6.19733V54.3276Z" fill="#0C2231"/>
<path d="M9.33014 55.8696H9.15642L8.64697 54.679L8.12581 55.8696H7.95795L8.6294 54.3276H8.66259L9.33014 55.8696Z" fill="#0C2231"/>
<path d="M11.5729 55.8696H11.405L10.8936 54.679L10.3744 55.8696H10.2065L10.878 54.3276H10.9131L11.5729 55.8696Z" fill="#0C2231"/>
<path d="M12.5664 54.3276H13.4506V54.4799H12.7206V54.962H13.4506V55.1123H12.7265V55.7194H13.4506V55.8696H12.5723L12.5664 54.3276Z" fill="#0C2231"/>
<path d="M14.452 54.3276H14.6081V54.9132L15.2249 54.3276H15.4318L14.692 55.0206L15.4904 55.8696H15.2952L14.6179 55.1513V55.8696H14.4617L14.452 54.3276Z" fill="#0C2231"/>
<path d="M16.3004 54.4799V54.3276H17.1456V54.4799H16.8021V55.8696H16.6459V54.4799H16.3004Z" fill="#0C2231"/>
<path d="M17.9849 54.3315H18.1586L18.6252 55.3797L19.0526 54.3276H19.2224L18.6369 55.7135C18.6159 55.773 18.5763 55.8242 18.5239 55.8594C18.4714 55.8946 18.4091 55.9118 18.346 55.9087C18.2916 55.9088 18.2377 55.8975 18.1879 55.8755C18.1129 55.8348 18.0466 55.7797 17.9927 55.7135L18.1059 55.6218C18.1513 55.672 18.2032 55.716 18.2601 55.7525C18.285 55.7624 18.3115 55.7677 18.3382 55.7681C18.376 55.7689 18.413 55.7572 18.4436 55.735C18.4889 55.6898 18.5225 55.6341 18.5412 55.573L17.9849 54.3315Z" fill="#0C2231"/>
<path d="M20.8542 54.3276L21.5725 55.8696H21.4066L21.1646 55.3621H20.5009L20.2589 55.8696H20.0871L20.8171 54.3276H20.8542ZM20.8347 54.6556L20.5712 55.2138H21.0982L20.8347 54.6556Z" fill="#0C2231"/>
<path d="M23.7958 55.8696H23.6279L23.1165 54.679L22.5973 55.8696H22.4294L23.1009 54.3276H23.1341L23.7958 55.8696Z" fill="#0C2231"/>
<path d="M24.7873 54.3276H24.9415V54.9893H25.0528C25.1985 54.985 25.3442 54.9948 25.4881 55.0186C25.5729 55.0364 25.6485 55.0842 25.7008 55.1533C25.7575 55.2328 25.7857 55.3291 25.7808 55.4266C25.7848 55.5225 25.7574 55.617 25.7028 55.6959C25.656 55.764 25.587 55.8137 25.5076 55.8365C25.3735 55.8643 25.2365 55.8754 25.0996 55.8696H24.7932L24.7873 54.3276ZM24.9415 55.7213H25.1055C25.2193 55.727 25.3334 55.7185 25.4451 55.6959C25.4968 55.6809 25.5416 55.6485 25.572 55.6042C25.6051 55.5532 25.6214 55.4932 25.6188 55.4324C25.6239 55.3621 25.6023 55.2924 25.5583 55.2372C25.5221 55.1898 25.4689 55.1584 25.41 55.1494C25.2981 55.1346 25.1851 55.1287 25.0723 55.1318H24.9415V55.7213Z" fill="#0C2231"/>
<path d="M26.8212 54.3276H26.9754V54.9757H27.7562V54.3276H27.9104V55.8696H27.7562V55.126H26.9754V55.8696H26.8212V54.3276Z" fill="#0C2231"/>
<path d="M29.7588 54.2888C29.8672 54.2863 29.975 54.3057 30.0756 54.346C30.1763 54.3862 30.2677 54.4464 30.3444 54.523C30.4579 54.6366 30.5351 54.7812 30.5664 54.9386C30.5977 55.0961 30.5816 55.2592 30.5202 55.4075C30.4588 55.5558 30.3548 55.6826 30.2214 55.7718C30.0879 55.8611 29.9311 55.9088 29.7706 55.9089C29.6621 55.9119 29.5542 55.8927 29.4535 55.8524C29.3528 55.8121 29.2614 55.7516 29.185 55.6747C29.1085 55.6014 29.0481 55.5131 29.0075 55.4154C28.9668 55.3176 28.9468 55.2125 28.9488 55.1066C28.9472 54.9622 28.9843 54.8201 29.0562 54.6948C29.1254 54.5709 29.2265 54.4678 29.3489 54.3962C29.4736 54.3245 29.6151 54.2874 29.7588 54.2888ZM29.7588 54.4391C29.6443 54.4407 29.5322 54.472 29.4334 54.5298C29.3345 54.5876 29.2523 54.67 29.1947 54.769C29.1364 54.8711 29.1067 54.9871 29.1089 55.1047C29.1078 55.1905 29.1239 55.2757 29.1561 55.3552C29.1884 55.4348 29.2362 55.5071 29.2967 55.568C29.3572 55.6289 29.4292 55.6771 29.5086 55.7098C29.5879 55.7425 29.673 55.7591 29.7588 55.7586C29.875 55.7591 29.9893 55.7295 30.0907 55.6727C30.1901 55.6162 30.2723 55.5339 30.3288 55.4346C30.3861 55.332 30.4157 55.2163 30.4147 55.0988C30.4162 54.9825 30.3865 54.868 30.3288 54.767C30.2722 54.6671 30.1891 54.5847 30.0887 54.5289C29.9911 54.4712 29.88 54.4402 29.7667 54.4391H29.7588Z" fill="#0C2231"/>
<path d="M32.839 55.8697H32.6789V54.6888L31.662 55.8697H31.6268V54.3277H31.781V55.53L32.8038 54.3277H32.839V55.8697ZM31.863 53.9587H31.9938C32.0168 53.9949 32.0501 54.0235 32.0894 54.0407C32.1345 54.0597 32.183 54.069 32.2319 54.068C32.278 54.07 32.3239 54.062 32.3666 54.0446C32.4054 54.024 32.4388 53.9946 32.4642 53.9587H32.5989C32.581 54.0242 32.5392 54.0807 32.4818 54.1168C32.4059 54.1621 32.3182 54.1838 32.23 54.1793C32.1426 54.1833 32.056 54.1623 31.9801 54.1188C31.9218 54.0822 31.8793 54.0251 31.8611 53.9587H31.863Z" fill="#0C2231"/>
<path d="M36.4832 55.8696H36.3231V54.6887L35.312 55.8696H35.2769V54.3276H35.4311V55.53L36.4559 54.3276H36.4832V55.8696Z" fill="#0C2231"/>
<path d="M37.7519 55.8696H37.5977V54.3276H38.3785V54.4799H37.7519V55.8696Z" fill="#0C2231"/>
<path d="M39.3252 54.3278H39.6316C39.7512 54.3235 39.8709 54.3313 39.9888 54.3513C40.0734 54.371 40.149 54.4184 40.2036 54.4859C40.2618 54.5573 40.2916 54.6477 40.2875 54.7397C40.2908 54.8313 40.2618 54.9211 40.2055 54.9934C40.1477 55.062 40.0687 55.1094 39.981 55.1281C39.8521 55.1498 39.7213 55.1583 39.5907 55.1535H39.4813V55.8698H39.3271L39.3252 54.3278ZM39.4794 54.4801V55.0032H39.739C39.8175 55.007 39.8961 54.9971 39.9713 54.9739C40.0189 54.9572 40.0595 54.9248 40.0864 54.8822C40.1144 54.8396 40.1293 54.7897 40.1293 54.7387C40.1293 54.6877 40.1144 54.6379 40.0864 54.5952C40.06 54.5536 40.0211 54.5215 39.9752 54.5035C39.9023 54.4826 39.8264 54.474 39.7507 54.4781L39.4794 54.4801Z" fill="#0C2231"/>
<path d="M41.3298 54.3276H41.484V54.9893H41.5952C41.7403 54.985 41.8854 54.9948 42.0286 55.0186C42.1136 55.0358 42.1893 55.0838 42.2413 55.1533C42.298 55.2328 42.3262 55.3291 42.3213 55.4266C42.3253 55.5225 42.2979 55.617 42.2433 55.6959C42.1964 55.7639 42.1274 55.8136 42.0481 55.8365C41.914 55.8642 41.777 55.8753 41.6401 55.8696H41.3337L41.3298 54.3276ZM41.484 55.7213H41.6479C41.7611 55.7271 41.8746 55.7186 41.9856 55.6959C42.0373 55.6809 42.0821 55.6485 42.1125 55.6042C42.145 55.5494 42.1612 55.4865 42.1591 55.4229C42.157 55.3593 42.1368 55.2975 42.1008 55.245C42.0638 55.1975 42.01 55.1661 41.9505 55.1572C41.8386 55.1423 41.7257 55.1364 41.6128 55.1396H41.484V55.7213ZM42.5029 54.3276H42.6571V55.8696H42.5029V54.3276Z" fill="#0C2231"/>
<path d="M45.0267 55.8696L45.2473 54.3276H45.2668L45.8934 55.5925L46.5141 54.3276H46.5375L46.76 55.8696H46.6097L46.4575 54.7668L45.9109 55.8696H45.8719L45.3195 54.759L45.1692 55.8696H45.0267Z" fill="#0C2231"/>
<path d="M48.4328 54.3276L49.1531 55.8696H48.9872L48.7432 55.3621H48.0795L47.8394 55.8696H47.6677L48.3957 54.3276H48.4328ZM48.4133 54.6556L48.1498 55.2138H48.6768L48.4133 54.6556Z" fill="#0C2231"/>
<path d="M50.7965 54.3276H50.9507V54.5228H51.0679C51.2408 54.5039 51.4144 54.5529 51.5519 54.6595C51.6352 54.7427 51.6833 54.8548 51.6862 54.9725C51.6891 55.0903 51.6466 55.2046 51.5676 55.2919C51.5058 55.3443 51.4338 55.3833 51.3562 55.4065C51.2786 55.4297 51.197 55.4365 51.1167 55.4266H50.9507V55.8677H50.7965V55.4266H50.6306C50.5333 55.4282 50.4362 55.4171 50.3418 55.3934C50.2627 55.3667 50.1943 55.3154 50.1466 55.247C50.0914 55.1711 50.0626 55.0792 50.0646 54.9854C50.0639 54.925 50.0753 54.8651 50.0981 54.8091C50.1209 54.7531 50.1546 54.7022 50.1973 54.6595C50.3355 54.5526 50.5097 54.5036 50.6833 54.5228H50.8024L50.7965 54.3276ZM50.7965 54.6731H50.6228C50.5173 54.6674 50.4127 54.6955 50.3242 54.7532C50.2891 54.7801 50.261 54.8151 50.2423 54.8552C50.2236 54.8953 50.2149 54.9393 50.2168 54.9835C50.2159 55.0229 50.223 55.0622 50.2377 55.0988C50.2525 55.1353 50.2746 55.1685 50.3027 55.1962C50.3373 55.2265 50.3775 55.2495 50.4211 55.2639C50.4647 55.2783 50.5107 55.2838 50.5565 55.2802H50.7965V54.6731ZM50.9507 54.6731V55.2802H51.1947C51.2396 55.2834 51.2846 55.2776 51.3271 55.2632C51.3697 55.2488 51.409 55.226 51.4426 55.1962C51.4707 55.1685 51.4928 55.1353 51.5076 55.0988C51.5224 55.0622 51.5295 55.0229 51.5285 54.9835C51.5299 54.9408 51.5215 54.8984 51.5039 54.8594C51.4863 54.8205 51.46 54.7862 51.427 54.759C51.3388 54.6953 51.231 54.6649 51.1225 54.6731H50.9507Z" fill="#0C2231"/>
<path d="M53.943 55.8696H53.783V54.6887L52.766 55.8696H52.7309V54.3276H52.8792V55.53L53.904 54.3276H53.9372L53.943 55.8696Z" fill="#0C2231"/>
<path d="M55.9281 55.8698H55.7739V55.1535H55.6861L55.1317 55.8698H54.9366L55.4909 55.1535C55.3878 55.1583 55.2847 55.1417 55.1883 55.1047C55.1181 55.0754 55.0587 55.0249 55.0185 54.9602C54.9788 54.8929 54.9585 54.8159 54.96 54.7377C54.9565 54.6455 54.9871 54.5552 55.0459 54.484C55.1025 54.415 55.181 54.3674 55.2684 54.3493C55.3833 54.3314 55.4996 54.3242 55.6158 54.3278H55.9242L55.9281 55.8698ZM55.5007 54.4801C55.4243 54.4761 55.3478 54.4847 55.2742 54.5054C55.2293 54.5241 55.1911 54.5561 55.1649 54.5972C55.1365 54.6385 55.1215 54.6876 55.122 54.7377C55.1215 54.7888 55.1357 54.839 55.163 54.8822C55.1911 54.925 55.2321 54.9578 55.2801 54.9758C55.3539 54.999 55.4312 55.0089 55.5085 55.0051H55.7739V54.482L55.5007 54.4801Z" fill="#0C2231"/>
<path d="M2.43794 49.5378L4.72753 53.4417H4.19661L3.41585 52.1534H1.31168L0.546536 53.4417H0L2.32473 49.5378H2.43794ZM2.37743 50.3694L1.54396 51.7767H3.22065L2.37743 50.3694Z" fill="#0C2231"/>
<path d="M10.718 50.2542L10.3276 50.4903C10.1111 50.2683 9.84859 50.0965 9.55854 49.9868C9.24334 49.8693 8.90917 49.8111 8.57283 49.815C8.19799 49.812 7.82678 49.8885 7.48366 50.0395C7.17445 50.1685 6.90502 50.3773 6.70289 50.6446C6.52103 50.8915 6.42443 51.1909 6.42768 51.4975C6.42719 51.7313 6.48277 51.9618 6.58976 52.1696C6.69674 52.3775 6.852 52.5566 7.04253 52.6921C7.49359 53.0243 8.04433 53.193 8.60406 53.1703C9.24128 53.1893 9.86062 52.9581 10.3295 52.5262L10.7199 52.7604C10.4614 53.0181 10.1487 53.2148 9.80449 53.3362C9.41145 53.4774 8.99626 53.5468 8.57868 53.5412C7.71984 53.5412 7.04253 53.3128 6.54674 52.8561C6.34845 52.6824 6.18999 52.468 6.08219 52.2275C5.97439 51.9869 5.91979 51.726 5.92213 51.4624C5.92264 51.1784 5.99155 50.8986 6.12304 50.6469C6.25452 50.3951 6.44471 50.1787 6.67752 50.016C7.22416 49.6121 7.89167 49.4057 8.57088 49.4305C8.99473 49.4249 9.41585 49.499 9.81229 49.6491C10.1574 49.7771 10.4676 49.9844 10.718 50.2542Z" fill="#0C2231"/>
<path d="M16.9231 50.2542L16.5327 50.4904C16.3165 50.268 16.0539 50.096 15.7636 49.9868C15.4484 49.8694 15.1143 49.8111 14.7779 49.815C14.4037 49.8123 14.0332 49.8888 13.6907 50.0395C13.3812 50.1681 13.1117 50.377 12.9099 50.6446C12.7281 50.8915 12.6315 51.1909 12.6347 51.4976C12.6342 51.7314 12.6898 51.9618 12.7968 52.1697C12.9038 52.3775 13.0591 52.5567 13.2496 52.6922C13.7376 53.03 14.3237 53.1969 14.9164 53.1669C15.5092 53.1368 16.0754 52.9116 16.5268 52.5262L16.9172 52.7605C16.6594 53.019 16.3464 53.2158 16.0018 53.3363C15.6088 53.4776 15.1936 53.547 14.776 53.5412C13.9171 53.5412 13.2398 53.3129 12.744 52.8561C12.546 52.6824 12.3878 52.4679 12.2804 52.2273C12.1729 51.9868 12.1187 51.7259 12.1214 51.4624C12.1219 51.1784 12.1908 50.8987 12.3223 50.6469C12.4538 50.3952 12.644 50.1788 12.8768 50.0161C13.4233 49.6119 14.0909 49.4054 14.7701 49.4305C15.1933 49.4251 15.6138 49.4992 16.0096 49.6491C16.3576 49.7758 16.6707 49.9831 16.9231 50.2542Z" fill="#0C2231"/>
<path d="M20.9011 49.4284C21.5712 49.4044 22.2292 49.6111 22.7652 50.014C22.9988 50.18 23.1893 50.3995 23.3208 50.6542C23.4523 50.9088 23.5209 51.1913 23.5209 51.4779C23.5209 51.7645 23.4523 52.047 23.3208 52.3016C23.1893 52.5563 22.9988 52.7758 22.7652 52.9418C22.2448 53.3487 21.5984 53.5606 20.9382 53.5411C20.2733 53.5616 19.622 53.3504 19.0956 52.9438C18.8653 52.7798 18.6771 52.5636 18.5465 52.3128C18.4159 52.0621 18.3465 51.784 18.3441 51.5013C18.3439 51.1254 18.4643 50.7594 18.6876 50.457C18.9253 50.1262 19.2476 49.8653 19.6206 49.7017C20.0222 49.5178 20.4594 49.4245 20.9011 49.4284ZM20.9226 49.809C20.5659 49.8078 20.2134 49.8851 19.89 50.0354C19.5868 50.1692 19.3237 50.3798 19.1268 50.6464C18.9472 50.8951 18.8515 51.1946 18.8535 51.5013C18.8557 51.7305 18.9118 51.9559 19.0173 52.1594C19.1227 52.3628 19.2746 52.5386 19.4606 52.6725C19.8777 52.9968 20.3944 53.1665 20.9226 53.1526C21.2863 53.1557 21.6464 53.0804 21.9785 52.9321C22.281 52.8016 22.5432 52.5927 22.7378 52.327C22.9155 52.0837 23.0124 51.7908 23.015 51.4896C23.0177 51.1867 22.9225 50.8909 22.7437 50.6464C22.5444 50.3824 22.2801 50.1746 21.9766 50.0432C21.6465 49.8893 21.2868 49.8094 20.9226 49.809Z" fill="#0C2231"/>
<path d="M28.7888 53.4417H25.1621V49.5378H25.652V53.0845H27.9241V49.5378H28.414V53.0845H29.2553V54.0272H28.7966L28.7888 53.4417Z" fill="#0C2231"/>
<path d="M34.5098 53.4417H33.9984V50.4416L30.7621 53.4417H30.6528V49.5378H31.1428V52.5906L34.3986 49.5378H34.5098V53.4417Z" fill="#0C2231"/>
<path d="M38.3648 49.5378L40.6525 53.4417H40.1235L39.3427 52.1534H37.2366L36.4832 53.4417H35.9347L38.2399 49.5378H38.3648ZM38.3024 50.3694L37.4591 51.7767H39.1378L38.3024 50.3694Z" fill="#0C2231"/>
<path d="M45.7021 53.4417H42.0656V49.5378H42.5556V53.0845H44.8276V49.5378H45.3175V53.0845H46.1588V54.0272H45.7021V53.4417Z" fill="#0C2231"/>
<path d="M51.4212 53.4417H50.9098V50.4416L47.6754 53.4417H47.5642V49.5378H48.0561V52.5906L51.3177 49.5378H51.427L51.4212 53.4417Z" fill="#0C2231"/>
<path d="M56.053 53.4416H55.5631V51.6244H55.2859L53.5292 53.4416H52.9222L54.6789 51.6244C54.3488 51.6358 54.0191 51.593 53.7029 51.4975C53.4925 51.4292 53.3057 51.3026 53.1642 51.1325C53.0369 50.9729 52.968 50.7745 52.969 50.5704C52.9667 50.4495 52.9898 50.3295 53.0369 50.2182C53.0839 50.1069 53.1539 50.0068 53.2423 49.9243C53.4397 49.7417 53.6871 49.6221 53.9528 49.5807C54.3199 49.5358 54.6898 49.5182 55.0595 49.528H56.0355L56.053 53.4416ZM54.6984 49.9106C54.4556 49.9001 54.2125 49.9238 53.9762 49.9809C53.8391 50.0216 53.7169 50.1017 53.6249 50.2112C53.5387 50.3102 53.4916 50.4372 53.4921 50.5684C53.4911 50.7017 53.5374 50.8311 53.6229 50.9334C53.7184 51.048 53.8463 51.131 53.9899 51.1716C54.2277 51.2317 54.4729 51.2573 54.7179 51.2477H55.5631V49.9165L54.6984 49.9106Z" fill="#0C2231"/>
</svg>
