<svg width="213" height="212" viewBox="0 0 213 212" fill="none" xmlns="http://www.w3.org/2000/svg">
<path d="M0.67196 166.114C9.25817 160.082 17.0544 154.59 24.6735 149.23L24.7325 24.3346H38.435L38.376 141.633C44.7769 137.166 56.0431 129.54 56.0431 129.54L60.5687 126.631C60.4506 112.603 60.5244 136.967 60.5244 122.939C60.5244 88.8751 60.5835 59.1298 60.5835 24.5782H74.3746L74.3155 117.041C83.3078 111.754 89.7087 107.576 98.4352 102.504L98.4942 0.0229688H11.6281C9.95954 0.0229688 8.29102 -0.0287109 6.62251 0.0229688C4.56713 0.150399 2.50584 0.150399 0.450474 0.0229688C0.450474 0.0229688 0.450474 8.31387 0.450474 9.62063C0.450474 75.0914 0.391413 93.3122 0.406178 158.753C0.391413 161.027 0.575984 163.235 0.67196 166.114Z" fill="white"/>
<path d="M189.096 24.054H136.973C136.973 72.847 136.885 41.3741 136.885 90.898L188.284 122.991C188.284 122.991 188.321 106.749 188.321 95.121C184.681 94.6854 180.318 94.8626 176.117 94.7666C171.916 94.6706 167.523 94.7666 162.924 94.7666V71.1416H212.492C212.492 93.4451 212.455 142.718 212.455 165.9L196.014 155.055L169.103 137.675L130.993 113.098L114.847 101.906C114.847 31.1858 114.943 70.8979 114.943 0.0229492H212.396V55.7484H189.096V24.054Z" fill="white"/>
<path d="M40.4799 182.002H0.376465C35.2824 159.322 70.5575 136.051 106.298 112.832C141.735 135.867 177.217 159.071 212.47 182.002H172.138C136.301 158.761 141.499 162.186 106.209 139.307C71.2219 161.995 76.1832 158.864 40.4799 182.002Z" fill="white"/>
<path d="M147.782 170.249L162.282 170.145L165.279 170.226L132.588 149.03C91.6946 148.75 118.295 148.838 78.3539 148.565L45.9802 169.37C86.7998 169.702 107.782 169.924 147.782 170.249Z" fill="white"/>
<path d="M4.68067 211.319H4.07528V206.853L0.228838 211.319H0.0959473V205.487H0.671806V210.035L4.5404 205.487H4.67329L4.68067 211.319Z" fill="white"/>
<path d="M8.8667 205.487H9.44994V207.938H12.4031V205.487H12.9863V211.319H12.4031V208.506H9.44994V211.319H8.8667V205.487Z" fill="white"/>
<path d="M16.626 206.063V205.487H19.8227V206.063H18.516V211.319H17.9253V206.063H16.626Z" fill="white"/>
<path d="M23.4404 205.487H26.7848V206.063H24.0237V207.886H26.7627V208.455H24.0237V210.751H26.7627V211.319H23.4404V205.487Z" fill="white"/>
<path d="M35.2897 211.319H34.6326L32.7057 206.816L30.7345 211.319H30.0996L32.6393 205.487H32.7648L35.2897 211.319Z" fill="white"/>
<path d="M43.7727 211.319H43.1378L41.2035 206.816L39.2397 211.319H38.6047L41.1444 205.487H41.2773L43.7727 211.319Z" fill="white"/>
<path d="M47.5305 205.487H50.8749V206.063H48.1138V207.886H50.8749V208.455H48.1359V210.751H50.8749V211.319H47.5527L47.5305 205.487Z" fill="white"/>
<path d="M54.6624 205.487H55.253V207.702L57.5859 205.487H58.3685L55.5704 208.108L58.59 211.319H57.8517L55.2899 208.602V211.319H54.6993L54.6624 205.487Z" fill="white"/>
<path d="M61.6538 206.063V205.487H64.8506V206.063H63.5512V211.319H62.9606V206.063H61.6538Z" fill="white"/>
<path d="M68.0251 205.501H68.6822L70.4467 209.466L72.0635 205.487H72.7059L70.491 210.728C70.4117 210.954 70.2618 211.147 70.0636 211.28C69.8653 211.413 69.6294 211.479 69.391 211.467C69.1851 211.467 68.9814 211.424 68.793 211.341C68.5092 211.187 68.2584 210.979 68.0547 210.728L68.4829 210.382C68.6546 210.571 68.8507 210.738 69.0661 210.876C69.1602 210.913 69.2602 210.933 69.3614 210.935C69.5044 210.938 69.6444 210.894 69.7601 210.81C69.9315 210.639 70.0583 210.428 70.1293 210.197L68.0251 205.501Z" fill="white"/>
<path d="M78.878 205.487L81.5949 211.319H80.9673L80.0519 209.4H77.5417L76.6263 211.319H75.9766L78.7377 205.487H78.878ZM78.8042 206.727L77.8075 208.838H79.8009L78.8042 206.727Z" fill="white"/>
<path d="M90.0039 211.319H89.369L87.4347 206.816L85.4709 211.319H84.8359L87.3756 205.487H87.5011L90.0039 211.319Z" fill="white"/>
<path d="M93.7544 205.487H94.3376V207.989H94.7585C95.3095 207.973 95.8609 208.01 96.4048 208.1C96.7257 208.167 97.0116 208.348 97.2095 208.61C97.424 208.91 97.5307 209.274 97.5122 209.643C97.5273 210.006 97.4236 210.364 97.2169 210.662C97.0401 210.92 96.7791 211.108 96.4787 211.194C95.9714 211.299 95.4532 211.341 94.9356 211.319H93.7765L93.7544 205.487ZM94.3376 210.758H94.9578C95.3883 210.78 95.8199 210.747 96.2424 210.662C96.4377 210.605 96.6073 210.483 96.7223 210.315C96.8474 210.122 96.9093 209.895 96.8995 209.665C96.9185 209.399 96.8368 209.136 96.6706 208.927C96.5336 208.748 96.3325 208.629 96.1095 208.595C95.6862 208.539 95.2591 208.517 94.8323 208.528H94.3376V210.758Z" fill="white"/>
<path d="M101.447 205.487H102.031V207.938H104.984V205.487H105.567V211.319H104.984V208.506H102.031V211.319H101.447V205.487Z" fill="white"/>
<path d="M112.558 205.339C112.968 205.329 113.376 205.403 113.756 205.555C114.137 205.707 114.483 205.935 114.773 206.225C115.202 206.654 115.494 207.201 115.613 207.797C115.731 208.392 115.67 209.01 115.438 209.57C115.206 210.131 114.812 210.611 114.308 210.948C113.803 211.286 113.21 211.466 112.603 211.467C112.192 211.478 111.784 211.405 111.403 211.253C111.023 211.101 110.677 210.872 110.388 210.581C110.099 210.304 109.87 209.97 109.716 209.6C109.563 209.23 109.487 208.833 109.494 208.432C109.488 207.886 109.629 207.348 109.9 206.875C110.162 206.406 110.545 206.016 111.008 205.745C111.479 205.474 112.014 205.334 112.558 205.339ZM112.558 205.907C112.125 205.914 111.701 206.032 111.327 206.25C110.953 206.469 110.642 206.781 110.425 207.155C110.204 207.541 110.092 207.98 110.1 208.425C110.096 208.75 110.157 209.072 110.279 209.373C110.401 209.674 110.581 209.947 110.81 210.177C111.039 210.408 111.312 210.59 111.612 210.714C111.912 210.837 112.234 210.9 112.558 210.898C112.998 210.9 113.43 210.788 113.813 210.573C114.189 210.36 114.5 210.049 114.714 209.673C114.931 209.285 115.043 208.847 115.039 208.403C115.044 207.963 114.932 207.53 114.714 207.148C114.5 206.77 114.186 206.458 113.806 206.247C113.437 206.029 113.017 205.912 112.588 205.907H112.558Z" fill="white"/>
<path d="M124.208 211.319H123.603V206.852L119.757 211.319H119.624V205.487H120.207V210.034L124.076 205.487H124.208V211.319ZM120.517 204.091H121.012C121.099 204.228 121.225 204.336 121.374 204.401C121.544 204.473 121.728 204.508 121.912 204.505C122.087 204.512 122.26 204.482 122.422 204.416C122.569 204.338 122.695 204.227 122.791 204.091H123.3C123.233 204.339 123.075 204.552 122.857 204.689C122.57 204.86 122.239 204.943 121.905 204.926C121.575 204.941 121.247 204.861 120.96 204.697C120.74 204.558 120.579 204.342 120.51 204.091H120.517Z" fill="white"/>
<path d="M137.992 211.319H137.387V206.853L133.563 211.319H133.43V205.487H134.013V210.035L137.889 205.487H137.992V211.319Z" fill="white"/>
<path d="M142.791 211.319H142.208V205.487H145.161V206.063H142.791V211.319Z" fill="white"/>
<path d="M148.741 205.487H149.901C150.353 205.47 150.805 205.5 151.252 205.575C151.571 205.65 151.857 205.829 152.064 206.085C152.284 206.355 152.397 206.696 152.381 207.044C152.394 207.391 152.284 207.731 152.071 208.004C151.852 208.263 151.554 208.443 151.222 208.514C150.734 208.595 150.24 208.628 149.746 208.61H149.332V211.319H148.749L148.741 205.487ZM149.325 206.062V208.041H150.307C150.604 208.056 150.901 208.018 151.185 207.93C151.365 207.867 151.519 207.745 151.621 207.583C151.726 207.422 151.783 207.234 151.783 207.041C151.783 206.848 151.726 206.659 151.621 206.498C151.521 206.341 151.373 206.219 151.2 206.151C150.924 206.072 150.637 206.039 150.351 206.055L149.325 206.062Z" fill="white"/>
<path d="M156.324 205.487H156.907V207.989H157.328C157.876 207.973 158.425 208.01 158.967 208.1C159.288 208.165 159.575 208.347 159.772 208.61C159.986 208.91 160.093 209.274 160.074 209.643C160.089 210.006 159.986 210.364 159.779 210.662C159.602 210.919 159.341 211.107 159.041 211.194C158.533 211.298 158.015 211.341 157.498 211.319H156.339L156.324 205.487ZM156.907 210.758H157.527C157.955 210.78 158.384 210.748 158.804 210.662C159 210.605 159.169 210.483 159.284 210.315C159.407 210.108 159.468 209.87 159.461 209.629C159.453 209.389 159.376 209.155 159.24 208.957C159.1 208.777 158.897 208.658 158.671 208.624C158.248 208.568 157.821 208.546 157.394 208.558H156.907V210.758ZM160.761 205.487H161.344V211.319H160.761V205.487Z" fill="white"/>
<path d="M170.307 211.319L171.141 205.487H171.215L173.585 210.271L175.932 205.487H176.021L176.863 211.319H176.294L175.718 207.148L173.651 211.319H173.503L171.414 207.118L170.846 211.319H170.307Z" fill="white"/>
<path d="M183.19 205.487L185.914 211.319H185.286L184.364 209.4H181.853L180.945 211.319H180.296L183.049 205.487H183.19ZM183.116 206.727L182.119 208.838H184.113L183.116 206.727Z" fill="white"/>
<path d="M192.13 205.487H192.713V206.225H193.156C193.811 206.154 194.467 206.339 194.987 206.742C195.302 207.057 195.484 207.481 195.495 207.926C195.506 208.371 195.346 208.804 195.046 209.134C194.813 209.332 194.541 209.48 194.247 209.567C193.954 209.655 193.645 209.681 193.341 209.643H192.713V211.312H192.13V209.643H191.503C191.135 209.65 190.767 209.607 190.41 209.518C190.111 209.417 189.852 209.223 189.672 208.964C189.463 208.677 189.354 208.329 189.362 207.975C189.359 207.746 189.402 207.519 189.489 207.308C189.575 207.096 189.702 206.904 189.864 206.742C190.386 206.338 191.045 206.152 191.702 206.225H192.152L192.13 205.487ZM192.13 206.793H191.473C191.074 206.772 190.678 206.878 190.344 207.096C190.211 207.198 190.105 207.33 190.034 207.482C189.963 207.634 189.93 207.8 189.938 207.967C189.934 208.117 189.961 208.265 190.017 208.403C190.073 208.542 190.156 208.667 190.262 208.772C190.393 208.886 190.545 208.973 190.71 209.028C190.875 209.082 191.049 209.103 191.222 209.09H192.13V206.793ZM192.713 206.793V209.09H193.636C193.806 209.102 193.976 209.08 194.137 209.025C194.298 208.971 194.447 208.885 194.574 208.772C194.68 208.667 194.764 208.542 194.82 208.403C194.876 208.265 194.902 208.117 194.899 207.967C194.904 207.806 194.872 207.645 194.806 207.498C194.739 207.351 194.64 207.221 194.515 207.118C194.181 206.877 193.773 206.762 193.363 206.793H192.713Z" fill="white"/>
<path d="M204.031 211.319H203.426V206.853L199.58 211.319H199.447V205.487H200.008V210.035L203.884 205.487H204.009L204.031 211.319Z" fill="white"/>
<path d="M211.54 211.319H210.957V208.61H210.624L208.528 211.319H207.789L209.886 208.61C209.496 208.628 209.106 208.565 208.742 208.425C208.476 208.314 208.251 208.123 208.099 207.879C207.949 207.624 207.872 207.333 207.878 207.037C207.865 206.688 207.981 206.347 208.203 206.077C208.417 205.816 208.714 205.636 209.044 205.568C209.479 205.5 209.919 205.473 210.359 205.487H211.525L211.54 211.319ZM209.923 206.062C209.634 206.048 209.345 206.08 209.067 206.158C208.896 206.229 208.752 206.35 208.653 206.505C208.546 206.662 208.489 206.847 208.491 207.037C208.489 207.23 208.543 207.42 208.646 207.583C208.752 207.745 208.907 207.869 209.089 207.938C209.368 208.025 209.66 208.063 209.952 208.048H210.957V206.07L209.923 206.062Z" fill="white"/>
<path d="M9.22114 187.369L17.8812 202.135H15.873L12.9199 197.262H4.96125L2.06719 202.135H0L8.79293 187.369H9.22114ZM8.99227 190.514L5.83981 195.837H12.1816L8.99227 190.514Z" fill="white"/>
<path d="M40.539 190.079L39.0625 190.972C38.2435 190.132 37.2507 189.482 36.1536 189.067C34.9614 188.623 33.6975 188.403 32.4253 188.418C31.0075 188.406 29.6035 188.696 28.3057 189.267C27.1361 189.755 26.1171 190.544 25.3526 191.555C24.6647 192.489 24.2993 193.622 24.3116 194.782C24.3098 195.666 24.52 196.537 24.9246 197.324C25.3293 198.11 25.9165 198.787 26.6372 199.3C28.3432 200.556 30.4264 201.194 32.5434 201.109C34.9536 201.18 37.2962 200.306 39.0698 198.672L40.5464 199.558C39.5687 200.533 38.3858 201.277 37.0839 201.736C35.5973 202.27 34.0269 202.533 32.4475 202.511C29.199 202.511 26.6372 201.648 24.762 199.92C24.0119 199.263 23.4126 198.452 23.0048 197.542C22.5971 196.633 22.3906 195.646 22.3994 194.649C22.4014 193.574 22.662 192.516 23.1593 191.564C23.6567 190.612 24.376 189.793 25.2566 189.178C27.3242 187.65 29.8489 186.869 32.4179 186.963C34.0211 186.942 35.6139 187.222 37.1134 187.79C38.4186 188.274 39.592 189.058 40.539 190.079Z" fill="white"/>
<path d="M64.009 190.079L62.5324 190.972C61.7148 190.131 60.7215 189.48 59.6236 189.067C58.4314 188.623 57.1675 188.403 55.8953 188.418C54.48 188.407 53.0785 188.697 51.7831 189.267C50.6124 189.753 49.5929 190.543 48.8299 191.555C48.1421 192.489 47.7767 193.622 47.789 194.782C47.7871 195.666 47.9974 196.538 48.402 197.324C48.8067 198.11 49.3939 198.788 50.1146 199.3C51.9604 200.578 54.1771 201.209 56.4192 201.095C58.6613 200.982 60.8029 200.13 62.5103 198.672L63.9869 199.558C63.0117 200.536 61.828 201.281 60.5243 201.736C59.0379 202.271 57.4674 202.533 55.8879 202.511C52.6395 202.511 50.0776 201.648 48.2024 199.92C47.4534 199.263 46.8551 198.452 46.4486 197.542C46.0422 196.632 45.837 195.645 45.8473 194.649C45.8492 193.574 46.1099 192.516 46.6072 191.564C47.1045 190.612 47.8239 189.793 48.7044 189.178C50.7715 187.649 53.2966 186.868 55.8658 186.963C57.4665 186.943 59.0568 187.223 60.5539 187.79C61.8703 188.269 63.0544 189.053 64.009 190.079Z" fill="white"/>
<path d="M79.0553 186.956C81.5897 186.865 84.0786 187.647 86.1059 189.171C86.9896 189.799 87.7103 190.629 88.2075 191.592C88.7048 192.555 88.9643 193.624 88.9643 194.708C88.9643 195.792 88.7048 196.86 88.2075 197.824C87.7103 198.787 86.9896 199.617 86.1059 200.245C84.1375 201.784 81.6929 202.585 79.1955 202.511C76.6808 202.589 74.2172 201.79 72.2262 200.252C71.3552 199.632 70.6435 198.814 70.1495 197.866C69.6554 196.918 69.393 195.866 69.3838 194.796C69.3832 193.375 69.8386 191.99 70.6832 190.847C71.5823 189.595 72.8011 188.609 74.2121 187.989C75.7312 187.294 77.3846 186.941 79.0553 186.956ZM79.1365 188.395C77.7876 188.391 76.4542 188.683 75.231 189.252C74.0841 189.758 73.0891 190.554 72.3443 191.563C71.6651 192.503 71.3031 193.636 71.3107 194.796C71.3189 195.663 71.5311 196.516 71.9299 197.285C72.3288 198.055 72.9032 198.72 73.6067 199.226C75.1844 200.453 77.1386 201.095 79.1365 201.042C80.5123 201.054 81.8744 200.769 83.1306 200.208C84.2747 199.715 85.2662 198.924 86.0025 197.919C86.6745 196.999 87.0412 195.891 87.0509 194.752C87.061 193.606 86.7011 192.488 86.0246 191.563C85.271 190.564 84.2713 189.778 83.1232 189.281C81.8747 188.699 80.5141 188.397 79.1365 188.395Z" fill="white"/>
<path d="M108.889 202.135H95.1719V187.369H97.025V200.784H105.619V187.369H107.472V200.784H110.654V204.35H108.919L108.889 202.135Z" fill="white"/>
<path d="M130.528 202.135H128.594V190.788L116.353 202.135H115.94V187.369H117.793V198.916L130.107 187.369H130.528V202.135Z" fill="white"/>
<path d="M145.109 187.369L153.762 202.135H151.761L148.808 197.262H140.842L137.992 202.135H135.917L144.637 187.369H145.109ZM144.873 190.514L141.683 195.837H148.033L144.873 190.514Z" fill="white"/>
<path d="M172.861 202.135H159.107V187.369H160.96V200.784H169.554V187.369H171.407V200.784H174.589V204.35H172.861V202.135Z" fill="white"/>
<path d="M194.493 202.135H192.559V190.788L180.325 202.135H179.904V187.369H181.765V198.916L194.102 187.369H194.515L194.493 202.135Z" fill="white"/>
<path d="M212.012 202.135H210.159V195.261H209.111L202.466 202.135H200.17L206.815 195.261C205.566 195.305 204.319 195.143 203.123 194.782C202.327 194.523 201.621 194.044 201.086 193.401C200.604 192.797 200.343 192.047 200.347 191.275C200.338 190.818 200.426 190.364 200.604 189.943C200.782 189.522 201.047 189.143 201.381 188.831C202.128 188.14 203.063 187.688 204.068 187.532C205.457 187.362 206.856 187.295 208.254 187.332H211.946L212.012 202.135ZM206.889 188.779C205.97 188.74 205.051 188.829 204.157 189.045C203.638 189.199 203.176 189.502 202.828 189.916C202.502 190.291 202.324 190.771 202.326 191.267C202.322 191.772 202.497 192.261 202.821 192.648C203.182 193.081 203.666 193.395 204.209 193.549C205.108 193.776 206.035 193.873 206.962 193.837H210.159V188.801L206.889 188.779Z" fill="white"/>
</svg>
