<svg width="35" height="35" viewBox="0 0 35 35" fill="none" xmlns="http://www.w3.org/2000/svg">
<path d="M20.4059 4.40714C20.8845 4.53292 21.3534 4.67647 21.7499 4.99297C22.4512 5.55284 22.858 6.27471 22.8641 7.17432C22.8805 9.47256 22.8723 11.7715 22.8703 14.0697C22.8703 14.432 22.6413 14.6679 22.3125 14.6713C21.9707 14.6713 21.7383 14.4334 21.7383 14.0561C21.7355 11.8517 21.7355 9.64711 21.7383 7.44229C21.7383 6.24805 21.0362 5.54258 19.8474 5.5419H7.64324C6.45515 5.5419 5.75173 6.24942 5.75173 7.44434C5.75173 14.1691 5.75173 20.8938 5.75173 27.6186C5.75173 28.8107 6.4572 29.5183 7.64666 29.5183H19.8481C21.0266 29.5183 21.7362 28.8121 21.7362 27.6398C21.7362 25.444 21.7362 23.2481 21.7362 21.052C21.7362 20.6555 21.9351 20.4121 22.2639 20.393C22.3386 20.386 22.4138 20.3942 22.4852 20.4171C22.5565 20.4401 22.6225 20.4773 22.679 20.5266C22.7355 20.5758 22.7814 20.636 22.814 20.7035C22.8465 20.771 22.865 20.8445 22.8682 20.9193C22.8682 20.9617 22.8682 21.0048 22.8682 21.0479C22.8682 23.2948 22.8751 25.5425 22.8682 27.7895C22.8621 29.1566 21.9796 30.2648 20.6637 30.5751C20.4136 30.6299 20.1581 30.6559 19.9021 30.6523C15.8006 30.6569 11.699 30.6569 7.59744 30.6523C6.06482 30.6523 4.97859 29.7637 4.65798 28.2598C4.64651 28.2197 4.63235 28.1804 4.6156 28.1422V6.92003C4.63269 6.85167 4.6532 6.79151 4.66687 6.72657C4.84119 5.89805 5.27253 5.2377 6.01287 4.82549C6.35466 4.63409 6.75457 4.54385 7.12781 4.40714H20.4059Z" fill="white"/>
<path d="M28.9113 18.1009H12.2999C12.1974 18.1009 12.0949 18.105 11.9923 18.0968C11.8511 18.0858 11.7192 18.0222 11.6226 17.9186C11.526 17.815 11.4719 17.6789 11.4708 17.5373C11.4698 17.3956 11.522 17.2588 11.617 17.1538C11.7121 17.0487 11.8431 16.9832 11.9841 16.9702C12.086 16.9606 12.1892 16.9654 12.2911 16.9654H28.9065C28.8128 16.8663 28.7547 16.8014 28.6932 16.7392C27.9686 16.0139 27.2406 15.292 26.5194 14.5633C26.155 14.1948 26.274 13.6746 26.7422 13.5584C26.9979 13.4948 27.1838 13.6165 27.3575 13.7888C28.3646 14.7991 29.3734 15.8081 30.3837 16.8157C30.474 16.906 30.5676 16.9934 30.6572 17.0844C30.9477 17.3728 30.9498 17.6921 30.6613 17.9812C29.6641 18.9775 28.6663 19.973 27.6678 20.9679C27.5468 21.0889 27.4286 21.2126 27.3042 21.3295C27.0307 21.5865 26.6944 21.594 26.4613 21.3514C26.2371 21.1189 26.2439 20.7847 26.4982 20.5276C27.231 19.7866 27.9707 19.0524 28.7069 18.3155C28.7609 18.2608 28.8122 18.2048 28.9113 18.1009Z" fill="white"/>
</svg>
