<svg width="57" height="56" viewBox="0 0 57 56" fill="none" xmlns="http://www.w3.org/2000/svg">
<path d="M0.177585 43.9182C2.44766 42.3235 4.50887 40.8713 6.52325 39.4542L6.53886 6.43372H10.1616L10.146 37.4457C11.8383 36.2648 14.8169 34.2485 14.8169 34.2485L16.0134 33.4794C15.9822 29.7708 16.0017 36.2121 16.0017 32.5034C16.0017 23.4973 16.0173 15.6331 16.0173 6.49813H19.6635L19.6479 30.9439C22.0253 29.5463 23.7176 28.4415 26.0248 27.1006L26.0404 0.00607261H3.07422C2.63309 0.00607261 2.19196 -0.00759077 1.75083 0.00607261C1.20741 0.0397635 0.662438 0.0397635 0.119027 0.00607261C0.119027 0.00607261 0.119027 2.19807 0.119027 2.54356C0.119027 19.8531 0.103412 24.6704 0.107316 41.9722C0.103412 42.5734 0.15221 43.157 0.177585 43.9182Z" fill="white"/>
<path d="M49.9943 6.35957H36.2138C36.2138 19.2598 36.1903 10.9388 36.1903 24.0322L49.7796 32.5171C49.7796 32.5171 49.7893 28.2229 49.7893 25.1487C48.827 25.0335 47.6734 25.0804 46.5628 25.055C45.4522 25.0296 44.2908 25.055 43.0747 25.055V18.8089H56.1799C56.1799 24.7056 56.1701 37.7327 56.1701 43.8617L51.8232 40.9943L44.7085 36.3995L34.6327 29.9016L30.3639 26.9425C30.3639 8.24512 30.3893 18.7445 30.3893 0.00610352H56.1545V14.7391H49.9943V6.35957Z" fill="white"/>
<path d="M10.7024 48.1188H0.0996094C9.32825 42.1225 18.6545 35.9701 28.1037 29.8313C37.4729 35.9213 46.8537 42.0561 56.1741 48.1188H45.5108C36.0363 41.9741 37.4104 42.8798 28.0803 36.8309C18.8302 42.8291 20.1418 42.0015 10.7024 48.1188Z" fill="white"/>
<path d="M39.0714 45.0113L42.905 44.984L43.6974 45.0055L35.0544 39.4015C24.2427 39.3274 31.2755 39.3508 20.7156 39.2786L12.1565 44.779C22.9486 44.8669 28.4959 44.9254 39.0714 45.0113Z" fill="white"/>
<path d="M1.23753 55.8696H1.07747V54.6887L0.0605251 55.8696H0.0253906V54.3276H0.177639V55.53L1.20044 54.3276H1.23558L1.23753 55.8696Z" fill="white"/>
<path d="M2.34424 54.3276H2.49844V54.9757H3.2792V54.3276H3.4334V55.8696H3.2792V55.126H2.49844V55.8696H2.34424V54.3276Z" fill="white"/>
<path d="M4.39575 54.4799V54.3276H5.24093V54.4799H4.89544V55.8696H4.73929V54.4799H4.39575Z" fill="white"/>
<path d="M6.19727 54.3276H7.08148V54.4799H6.35147V54.962H7.07563V55.1123H6.35147V55.7194H7.07563V55.8696H6.19727V54.3276Z" fill="white"/>
<path d="M9.3302 55.8696H9.15648L8.64703 54.679L8.12587 55.8696H7.95801L8.62947 54.3276H8.66265L9.3302 55.8696Z" fill="white"/>
<path d="M11.5729 55.8696H11.405L10.8936 54.679L10.3744 55.8696H10.2065L10.878 54.3276H10.9131L11.5729 55.8696Z" fill="white"/>
<path d="M12.5664 54.3276H13.4506V54.4799H12.7206V54.962H13.4506V55.1123H12.7265V55.7194H13.4506V55.8696H12.5723L12.5664 54.3276Z" fill="white"/>
<path d="M14.4519 54.3276H14.6081V54.9132L15.2249 54.3276H15.4318L14.692 55.0206L15.4903 55.8696H15.2951L14.6178 55.1513V55.8696H14.4617L14.4519 54.3276Z" fill="white"/>
<path d="M16.3004 54.4799V54.3276H17.1456V54.4799H16.8021V55.8696H16.6459V54.4799H16.3004Z" fill="white"/>
<path d="M17.9849 54.3315H18.1586L18.6251 55.3797L19.0526 54.3276H19.2224L18.6368 55.7135C18.6158 55.773 18.5762 55.8242 18.5238 55.8594C18.4714 55.8946 18.409 55.9118 18.346 55.9087C18.2915 55.9088 18.2377 55.8975 18.1879 55.8755C18.1128 55.8348 18.0465 55.7797 17.9927 55.7135L18.1059 55.6218C18.1513 55.672 18.2031 55.716 18.2601 55.7525C18.285 55.7624 18.3114 55.7677 18.3382 55.7681C18.376 55.7689 18.413 55.7572 18.4436 55.735C18.4889 55.6898 18.5224 55.6341 18.5412 55.573L17.9849 54.3315Z" fill="white"/>
<path d="M20.8543 54.3276L21.5726 55.8696H21.4066L21.1646 55.3621H20.501L20.2589 55.8696H20.0872L20.8172 54.3276H20.8543ZM20.8347 54.6556L20.5712 55.2138H21.0982L20.8347 54.6556Z" fill="white"/>
<path d="M23.7958 55.8696H23.6279L23.1165 54.679L22.5973 55.8696H22.4294L23.1009 54.3276H23.1341L23.7958 55.8696Z" fill="white"/>
<path d="M24.7874 54.3276H24.9416V54.9893H25.0528C25.1985 54.985 25.3443 54.9948 25.4881 55.0186C25.5729 55.0364 25.6485 55.0842 25.7008 55.1533C25.7575 55.2328 25.7857 55.3291 25.7809 55.4266C25.7848 55.5225 25.7574 55.617 25.7028 55.6959C25.6561 55.764 25.587 55.8137 25.5076 55.8365C25.3735 55.8643 25.2365 55.8754 25.0997 55.8696H24.7932L24.7874 54.3276ZM24.9416 55.7213H25.1055C25.2193 55.727 25.3334 55.7185 25.4451 55.6959C25.4968 55.6809 25.5416 55.6485 25.572 55.6042C25.6051 55.5532 25.6215 55.4932 25.6189 55.4324C25.6239 55.3621 25.6023 55.2924 25.5584 55.2372C25.5221 55.1898 25.469 55.1584 25.41 55.1494C25.2981 55.1346 25.1852 55.1287 25.0723 55.1318H24.9416V55.7213Z" fill="white"/>
<path d="M26.8212 54.3276H26.9754V54.9757H27.7561V54.3276H27.9103V55.8696H27.7561V55.126H26.9754V55.8696H26.8212V54.3276Z" fill="white"/>
<path d="M29.7589 54.2888C29.8673 54.2863 29.975 54.3057 30.0757 54.346C30.1763 54.3862 30.2678 54.4464 30.3445 54.523C30.4579 54.6366 30.5352 54.7812 30.5664 54.9386C30.5977 55.0961 30.5816 55.2592 30.5202 55.4075C30.4588 55.5558 30.3548 55.6826 30.2214 55.7718C30.088 55.8611 29.9311 55.9088 29.7706 55.9089C29.6622 55.9119 29.5543 55.8927 29.4536 55.8524C29.3529 55.8121 29.2615 55.7516 29.185 55.6747C29.1086 55.6014 29.0482 55.5131 29.0075 55.4154C28.9669 55.3176 28.9469 55.2125 28.9489 55.1066C28.9473 54.9622 28.9844 54.8201 29.0562 54.6948C29.1255 54.5709 29.2265 54.4678 29.349 54.3962C29.4736 54.3245 29.6151 54.2874 29.7589 54.2888ZM29.7589 54.4391C29.6444 54.4407 29.5323 54.472 29.4334 54.5298C29.3346 54.5876 29.2524 54.67 29.1948 54.769C29.1364 54.8711 29.1067 54.9871 29.1089 55.1047C29.1079 55.1905 29.124 55.2757 29.1562 55.3552C29.1885 55.4348 29.2362 55.5071 29.2967 55.568C29.3573 55.6289 29.4293 55.6771 29.5086 55.7098C29.588 55.7425 29.6731 55.7591 29.7589 55.7586C29.8751 55.7591 29.9894 55.7295 30.0907 55.6727C30.1901 55.6162 30.2724 55.5339 30.3289 55.4346C30.3861 55.332 30.4157 55.2163 30.4147 55.0988C30.4162 54.9825 30.3866 54.868 30.3289 54.767C30.2723 54.6671 30.1892 54.5847 30.0888 54.5289C29.9912 54.4712 29.8801 54.4402 29.7667 54.4391H29.7589Z" fill="white"/>
<path d="M32.839 55.8697H32.6789V54.6888L31.662 55.8697H31.6268V54.3277H31.781V55.53L32.8038 54.3277H32.839V55.8697ZM31.863 53.9587H31.9938C32.0168 53.9949 32.0501 54.0235 32.0894 54.0407C32.1345 54.0597 32.183 54.069 32.2319 54.068C32.278 54.07 32.3239 54.062 32.3666 54.0446C32.4054 54.024 32.4388 53.9946 32.4642 53.9587H32.5989C32.581 54.0242 32.5392 54.0807 32.4818 54.1168C32.4059 54.1621 32.3182 54.1838 32.23 54.1793C32.1426 54.1833 32.056 54.1623 31.9801 54.1188C31.9218 54.0822 31.8793 54.0251 31.8611 53.9587H31.863Z" fill="white"/>
<path d="M36.4831 55.8696H36.3231V54.6887L35.312 55.8696H35.2769V54.3276H35.4311V55.53L36.4558 54.3276H36.4831V55.8696Z" fill="white"/>
<path d="M37.752 55.8696H37.5978V54.3276H38.3785V54.4799H37.752V55.8696Z" fill="white"/>
<path d="M39.3252 54.3278H39.6316C39.7512 54.3235 39.8709 54.3313 39.9888 54.3513C40.0734 54.371 40.149 54.4184 40.2036 54.4859C40.2618 54.5573 40.2916 54.6477 40.2875 54.7397C40.2908 54.8313 40.2618 54.9211 40.2055 54.9934C40.1477 55.062 40.0687 55.1094 39.981 55.1281C39.8521 55.1498 39.7213 55.1583 39.5907 55.1535H39.4813V55.8698H39.3271L39.3252 54.3278ZM39.4794 54.4801V55.0032H39.739C39.8175 55.007 39.8961 54.9971 39.9713 54.9739C40.0189 54.9572 40.0595 54.9248 40.0864 54.8822C40.1144 54.8396 40.1293 54.7897 40.1293 54.7387C40.1293 54.6877 40.1144 54.6379 40.0864 54.5952C40.06 54.5536 40.0211 54.5215 39.9752 54.5035C39.9023 54.4826 39.8264 54.474 39.7507 54.4781L39.4794 54.4801Z" fill="white"/>
<path d="M41.3298 54.3276H41.484V54.9893H41.5953C41.7403 54.985 41.8855 54.9948 42.0286 55.0186C42.1137 55.0358 42.1894 55.0838 42.2414 55.1533C42.2981 55.2328 42.3263 55.3291 42.3214 55.4266C42.3254 55.5225 42.298 55.617 42.2433 55.6959C42.1965 55.7639 42.1275 55.8136 42.0481 55.8365C41.914 55.8642 41.777 55.8753 41.6402 55.8696H41.3337L41.3298 54.3276ZM41.484 55.7213H41.648C41.7612 55.7271 41.8746 55.7186 41.9857 55.6959C42.0373 55.6809 42.0822 55.6485 42.1126 55.6042C42.1451 55.5494 42.1612 55.4865 42.1592 55.4229C42.1571 55.3593 42.1368 55.2975 42.1008 55.245C42.0639 55.1975 42.0101 55.1661 41.9505 55.1572C41.8386 55.1423 41.7257 55.1364 41.6129 55.1396H41.484V55.7213ZM42.5029 54.3276H42.6571V55.8696H42.5029V54.3276Z" fill="white"/>
<path d="M45.0267 55.8696L45.2473 54.3276H45.2668L45.8934 55.5925L46.5141 54.3276H46.5375L46.76 55.8696H46.6097L46.4575 54.7668L45.9109 55.8696H45.8719L45.3195 54.759L45.1692 55.8696H45.0267Z" fill="white"/>
<path d="M48.4328 54.3276L49.153 55.8696H48.9871L48.7431 55.3621H48.0795L47.8394 55.8696H47.6676L48.3957 54.3276H48.4328ZM48.4132 54.6556L48.1497 55.2138H48.6767L48.4132 54.6556Z" fill="white"/>
<path d="M50.7965 54.3276H50.9507V54.5228H51.0678C51.2408 54.5039 51.4144 54.5529 51.5519 54.6595C51.6352 54.7427 51.6833 54.8548 51.6862 54.9725C51.6891 55.0903 51.6466 55.2046 51.5675 55.2919C51.5058 55.3443 51.4338 55.3833 51.3562 55.4065C51.2786 55.4297 51.197 55.4365 51.1166 55.4266H50.9507V55.8677H50.7965V55.4266H50.6306C50.5333 55.4282 50.4361 55.4171 50.3417 55.3934C50.2627 55.3667 50.1943 55.3154 50.1465 55.247C50.0914 55.1711 50.0626 55.0792 50.0645 54.9854C50.0639 54.925 50.0753 54.8651 50.0981 54.8091C50.1209 54.7531 50.1546 54.7022 50.1973 54.6595C50.3354 54.5526 50.5097 54.5036 50.6833 54.5228H50.8024L50.7965 54.3276ZM50.7965 54.6731H50.6228C50.5173 54.6674 50.4127 54.6955 50.3242 54.7532C50.2891 54.7801 50.261 54.8151 50.2423 54.8552C50.2236 54.8953 50.2149 54.9393 50.2168 54.9835C50.2158 55.0229 50.2229 55.0622 50.2377 55.0988C50.2525 55.1353 50.2746 55.1685 50.3027 55.1962C50.3372 55.2265 50.3775 55.2495 50.4211 55.2639C50.4646 55.2783 50.5107 55.2838 50.5564 55.2802H50.7965V54.6731ZM50.9507 54.6731V55.2802H51.1947C51.2395 55.2834 51.2845 55.2776 51.3271 55.2632C51.3697 55.2488 51.4089 55.226 51.4426 55.1962C51.4707 55.1685 51.4928 55.1353 51.5076 55.0988C51.5223 55.0622 51.5295 55.0229 51.5285 54.9835C51.5299 54.9408 51.5214 54.8984 51.5038 54.8594C51.4862 54.8205 51.4599 54.7862 51.427 54.759C51.3388 54.6953 51.2309 54.6649 51.1225 54.6731H50.9507Z" fill="white"/>
<path d="M53.9431 55.8696H53.783V54.6887L52.7661 55.8696H52.731V54.3276H52.8793V55.53L53.9041 54.3276H53.9372L53.9431 55.8696Z" fill="white"/>
<path d="M55.9281 55.8698H55.7739V55.1535H55.6861L55.1317 55.8698H54.9365L55.4909 55.1535C55.3877 55.1583 55.2847 55.1417 55.1883 55.1047C55.118 55.0754 55.0587 55.0249 55.0185 54.9602C54.9787 54.8929 54.9585 54.8159 54.9599 54.7377C54.9565 54.6455 54.9871 54.5552 55.0458 54.484C55.1024 54.415 55.181 54.3674 55.2683 54.3493C55.3832 54.3314 55.4996 54.3242 55.6158 54.3278H55.9242L55.9281 55.8698ZM55.5006 54.4801C55.4243 54.4761 55.3478 54.4847 55.2742 54.5054C55.2292 54.5241 55.1911 54.5561 55.1649 54.5972C55.1365 54.6385 55.1215 54.6876 55.122 54.7377C55.1214 54.7888 55.1357 54.839 55.1629 54.8822C55.1911 54.925 55.2321 54.9578 55.2801 54.9758C55.3539 54.999 55.4312 55.0089 55.5084 55.0051H55.7739V54.482L55.5006 54.4801Z" fill="white"/>
<path d="M2.43794 49.5378L4.72753 53.4417H4.19661L3.41585 52.1534H1.31168L0.546536 53.4417H0L2.32473 49.5378H2.43794ZM2.37743 50.3694L1.54396 51.7767H3.22065L2.37743 50.3694Z" fill="white"/>
<path d="M10.7179 50.2542L10.3275 50.4903C10.111 50.2683 9.84853 50.0965 9.55848 49.9868C9.24328 49.8693 8.90911 49.8111 8.57277 49.815C8.19793 49.812 7.82672 49.8885 7.4836 50.0395C7.17439 50.1685 6.90496 50.3773 6.70283 50.6446C6.52097 50.8915 6.42437 51.1909 6.42762 51.4975C6.42713 51.7313 6.48271 51.9618 6.58969 52.1696C6.69668 52.3775 6.85194 52.5566 7.04247 52.6921C7.49353 53.0243 8.04427 53.193 8.604 53.1703C9.24122 53.1893 9.86056 52.9581 10.3295 52.5262L10.7199 52.7604C10.4614 53.0181 10.1486 53.2148 9.80442 53.3362C9.41139 53.4774 8.9962 53.5468 8.57862 53.5412C7.71978 53.5412 7.04247 53.3128 6.54668 52.8561C6.34839 52.6824 6.18992 52.468 6.08212 52.2275C5.97432 51.9869 5.91973 51.726 5.92207 51.4624C5.92258 51.1784 5.99149 50.8986 6.12298 50.6469C6.25446 50.3951 6.44465 50.1787 6.67746 50.016C7.2241 49.6121 7.89161 49.4057 8.57081 49.4305C8.99467 49.4249 9.41579 49.499 9.81223 49.6491C10.1573 49.7771 10.4675 49.9844 10.7179 50.2542Z" fill="white"/>
<path d="M16.923 50.2542L16.5326 50.4904C16.3164 50.268 16.0539 50.096 15.7636 49.9868C15.4484 49.8694 15.1142 49.8111 14.7779 49.815C14.4037 49.8123 14.0331 49.8888 13.6906 50.0395C13.3812 50.1681 13.1116 50.377 12.9099 50.6446C12.728 50.8915 12.6314 51.1909 12.6347 51.4976C12.6342 51.7314 12.6898 51.9618 12.7967 52.1697C12.9037 52.3775 13.059 52.5567 13.2495 52.6922C13.7375 53.03 14.3236 53.1969 14.9164 53.1669C15.5092 53.1368 16.0754 52.9116 16.5268 52.5262L16.9172 52.7605C16.6593 53.019 16.3464 53.2158 16.0017 53.3363C15.6087 53.4776 15.1935 53.547 14.7759 53.5412C13.9171 53.5412 13.2398 53.3129 12.744 52.8561C12.5459 52.6824 12.3878 52.4679 12.2803 52.2273C12.1728 51.9868 12.1186 51.7259 12.1213 51.4624C12.1218 51.1784 12.1907 50.8987 12.3222 50.6469C12.4537 50.3952 12.6439 50.1788 12.8767 50.0161C13.4232 49.6119 14.0908 49.4054 14.7701 49.4305C15.1933 49.4251 15.6137 49.4992 16.0095 49.6491C16.3576 49.7758 16.6706 49.9831 16.923 50.2542Z" fill="white"/>
<path d="M20.9011 49.4284C21.5712 49.4044 22.2292 49.6111 22.7652 50.014C22.9988 50.18 23.1894 50.3995 23.3208 50.6542C23.4523 50.9088 23.5209 51.1913 23.5209 51.4779C23.5209 51.7645 23.4523 52.047 23.3208 52.3016C23.1894 52.5563 22.9988 52.7758 22.7652 52.9418C22.2448 53.3487 21.5985 53.5606 20.9382 53.5411C20.2733 53.5616 19.622 53.3504 19.0956 52.9438C18.8653 52.7798 18.6772 52.5636 18.5466 52.3128C18.4159 52.0621 18.3466 51.784 18.3441 51.5013C18.344 51.1254 18.4644 50.7594 18.6877 50.457C18.9254 50.1262 19.2476 49.8653 19.6207 49.7017C20.0223 49.5178 20.4594 49.4245 20.9011 49.4284ZM20.9226 49.809C20.566 49.8078 20.2134 49.8851 19.89 50.0354C19.5868 50.1692 19.3238 50.3798 19.1268 50.6464C18.9473 50.8951 18.8516 51.1946 18.8536 51.5013C18.8557 51.7305 18.9118 51.9559 19.0173 52.1594C19.1227 52.3628 19.2746 52.5386 19.4606 52.6725C19.8777 52.9968 20.3944 53.1665 20.9226 53.1526C21.2863 53.1557 21.6465 53.0804 21.9786 52.9321C22.2811 52.8016 22.5432 52.5927 22.7379 52.327C22.9155 52.0837 23.0125 51.7908 23.015 51.4896C23.0177 51.1867 22.9226 50.8909 22.7437 50.6464C22.5445 50.3824 22.2802 50.1746 21.9766 50.0432C21.6465 49.8893 21.2868 49.8094 20.9226 49.809Z" fill="white"/>
<path d="M28.7888 53.4417H25.1621V49.5378H25.652V53.0845H27.9241V49.5378H28.414V53.0845H29.2553V54.0272H28.7966L28.7888 53.4417Z" fill="white"/>
<path d="M34.5098 53.4417H33.9984V50.4416L30.7621 53.4417H30.6528V49.5378H31.1428V52.5906L34.3986 49.5378H34.5098V53.4417Z" fill="white"/>
<path d="M38.3648 49.5378L40.6525 53.4417H40.1235L39.3427 52.1534H37.2366L36.4832 53.4417H35.9347L38.2399 49.5378H38.3648ZM38.3024 50.3694L37.4591 51.7767H39.1378L38.3024 50.3694Z" fill="white"/>
<path d="M45.7021 53.4417H42.0657V49.5378H42.5556V53.0845H44.8276V49.5378H45.3176V53.0845H46.1588V54.0272H45.7021V53.4417Z" fill="white"/>
<path d="M51.4212 53.4417H50.9098V50.4416L47.6755 53.4417H47.5642V49.5378H48.0561V52.5906L51.3177 49.5378H51.427L51.4212 53.4417Z" fill="white"/>
<path d="M56.053 53.4416H55.5631V51.6244H55.2859L53.5292 53.4416H52.9221L54.6788 51.6244C54.3488 51.6358 54.0191 51.593 53.7029 51.4975C53.4924 51.4292 53.3056 51.3026 53.1642 51.1325C53.0368 50.9729 52.9679 50.7745 52.969 50.5704C52.9666 50.4495 52.9897 50.3295 53.0368 50.2182C53.0839 50.1069 53.1539 50.0068 53.2422 49.9243C53.4396 49.7417 53.687 49.6221 53.9527 49.5807C54.3198 49.5358 54.6898 49.5182 55.0595 49.528H56.0354L56.053 53.4416ZM54.6984 49.9106C54.4555 49.9001 54.2124 49.9238 53.9762 49.9809C53.839 50.0216 53.7168 50.1017 53.6248 50.2112C53.5387 50.3102 53.4915 50.4372 53.4921 50.5684C53.491 50.7017 53.5374 50.8311 53.6229 50.9334C53.7184 51.048 53.8463 51.131 53.9898 51.1716C54.2276 51.2317 54.4728 51.2573 54.7179 51.2477H55.5631V49.9165L54.6984 49.9106Z" fill="white"/>
</svg>
