<svg width="95" height="94" viewBox="0 0 95 94" fill="none" xmlns="http://www.w3.org/2000/svg">
<path d="M0.29864 73.8396C4.11531 71.1584 7.58083 68.7168 10.9676 66.3343L10.9938 10.817H17.0848L17.0585 62.9574C19.9038 60.9719 24.9117 57.5819 24.9117 57.5819L26.9234 56.2889C26.8709 50.0535 26.9037 60.8833 26.9037 54.648C26.9037 39.506 26.93 26.2839 26.93 10.9253H33.0603L33.034 52.0259C37.0312 49.6761 39.8765 47.8187 43.7555 45.5641L43.7818 0.0102099H5.16875C4.42707 0.0102099 3.6854 -0.0127623 2.94373 0.0102099C2.03009 0.0668543 1.11382 0.0668543 0.200186 0.0102099C0.200186 0.0102099 0.200186 3.69561 0.200186 4.27648C0.200186 33.379 0.173933 41.4783 0.180497 70.5677C0.173933 71.5785 0.255977 72.5597 0.29864 73.8396Z" fill="white"/>
<path d="M84.0553 10.6923H60.8862C60.8862 32.3813 60.8468 18.3912 60.8468 40.4052L83.6943 54.6709C83.6943 54.6709 83.7107 47.4511 83.7107 42.2823C82.0928 42.0887 80.1533 42.1675 78.286 42.1248C76.4187 42.0822 74.466 42.1248 72.4215 42.1248V31.6232H94.4551C94.4551 41.5374 94.4387 63.4398 94.4387 73.7444L87.1303 68.9236L75.1683 61.1983L58.228 50.2734L51.0508 45.2983C51.0508 13.8624 51.0934 31.5149 51.0934 0.0101929H94.4125V24.7808H84.0553V10.6923Z" fill="white"/>
<path d="M17.9939 80.9019H0.16748C15.6836 70.8204 31.3637 60.4764 47.2507 50.1553C63.003 60.3943 78.7751 70.7088 94.4454 80.9019H76.5173C60.5877 70.571 62.898 72.0937 47.2113 61.9236C31.6591 72.0084 33.8644 70.617 17.9939 80.9019Z" fill="white"/>
<path d="M65.6907 75.6774L72.136 75.6315L73.4684 75.6675L58.9369 66.2457C40.7593 66.121 52.5834 66.1603 34.8292 66.0389L20.4387 75.2869C38.5835 75.4345 47.9102 75.533 65.6907 75.6774Z" fill="white"/>
<path d="M2.08069 93.9337H1.81158V91.9483L0.101796 93.9337H0.0427246V91.3412H0.2987V93.3627L2.01833 91.3412H2.07741L2.08069 93.9337Z" fill="#0C2231"/>
<path d="M3.94141 91.3412H4.20066V92.4307H5.51336V91.3412H5.77262V93.9337H5.51336V92.6834H4.20066V93.9337H3.94141V91.3412Z" fill="#0C2231"/>
<path d="M7.39062 91.5971V91.3412H8.81162V91.5971H8.23075V93.9337H7.96821V91.5971H7.39062Z" fill="#0C2231"/>
<path d="M10.4194 91.3412H11.9061V91.5971H10.6787V92.4077H11.8962V92.6604H10.6787V93.681H11.8962V93.9337H10.4194V91.3412Z" fill="#0C2231"/>
<path d="M15.6867 93.9337H15.3946L14.5381 91.9319L13.6619 93.9337H13.3796L14.5086 91.3412H14.5643L15.6867 93.9337Z" fill="#0C2231"/>
<path d="M19.4574 93.9337H19.1751L18.3153 91.9319L17.4424 93.9337H17.1602L18.2891 91.3412H18.3481L19.4574 93.9337Z" fill="#0C2231"/>
<path d="M21.1279 91.3412H22.6146V91.5971H21.3872V92.4077H22.6146V92.6604H21.397V93.681H22.6146V93.9337H21.1378L21.1279 91.3412Z" fill="#0C2231"/>
<path d="M24.2981 91.3412H24.5606V92.3257L25.5977 91.3412H25.9455L24.7017 92.5062L26.044 93.9337H25.7158L24.577 92.7261V93.9337H24.3145L24.2981 91.3412Z" fill="#0C2231"/>
<path d="M27.4058 91.5971V91.3412H28.8268V91.5971H28.2492V93.9337H27.9866V91.5971H27.4058Z" fill="#0C2231"/>
<path d="M30.238 91.3477H30.5301L31.3144 93.11L32.0332 91.3412H32.3187L31.3341 93.6712C31.2989 93.7713 31.2323 93.8573 31.1441 93.9165C31.056 93.9756 30.9512 94.0047 30.8452 93.9994C30.7536 93.9995 30.6631 93.9805 30.5793 93.9436C30.4532 93.8751 30.3417 93.7825 30.2512 93.6712L30.4415 93.517C30.5178 93.6014 30.605 93.6753 30.7008 93.7368C30.7426 93.7534 30.7871 93.7623 30.832 93.7631C30.8956 93.7643 30.9578 93.7447 31.0092 93.7073C31.0854 93.6313 31.1418 93.5378 31.1733 93.4349L30.238 91.3477Z" fill="#0C2231"/>
<path d="M35.0622 91.3412L36.2699 93.9337H35.9909L35.584 93.0805H34.4682L34.0613 93.9337H33.7725L34.9998 91.3412H35.0622ZM35.0294 91.8925L34.5863 92.8311H35.4724L35.0294 91.8925Z" fill="#0C2231"/>
<path d="M40.0077 93.9337H39.7254L38.8656 91.9319L37.9927 93.9337H37.7104L38.8394 91.3412H38.8952L40.0077 93.9337Z" fill="#0C2231"/>
<path d="M41.6748 91.3412H41.9341V92.4537H42.1211C42.3661 92.4465 42.6112 92.4629 42.8529 92.5029C42.9956 92.5327 43.1227 92.6132 43.2107 92.7293C43.306 92.8629 43.3534 93.0248 43.3452 93.1888C43.3519 93.35 43.3058 93.509 43.2139 93.6417C43.1354 93.7562 43.0193 93.8397 42.8858 93.8779C42.6603 93.9247 42.4299 93.9434 42.1999 93.9337H41.6846L41.6748 91.3412ZM41.9341 93.6843H42.2097C42.4011 93.694 42.5929 93.6796 42.7808 93.6417C42.8676 93.6165 42.943 93.562 42.9941 93.4874C43.0497 93.4017 43.0772 93.3007 43.0728 93.1986C43.0813 93.0803 43.045 92.9632 42.9711 92.8705C42.9102 92.7908 42.8208 92.7379 42.7217 92.7228C42.5335 92.6978 42.3437 92.6879 42.1539 92.6932H41.9341V93.6843Z" fill="#0C2231"/>
<path d="M45.0945 91.3412H45.3537V92.4307H46.6664V91.3412H46.9257V93.9337H46.6664V92.6834H45.3537V93.9337H45.0945V91.3412Z" fill="#0C2231"/>
<path d="M50.0335 91.2755C50.2157 91.2712 50.3969 91.3039 50.5661 91.3716C50.7353 91.4393 50.8891 91.5406 51.0181 91.6693C51.2088 91.8603 51.3386 92.1034 51.3912 92.3681C51.4438 92.6328 51.4168 92.9071 51.3135 93.1565C51.2103 93.4058 51.0355 93.6189 50.8112 93.769C50.5868 93.919 50.3231 93.9992 50.0532 93.9994C49.8709 94.0044 49.6895 93.9721 49.5202 93.9043C49.3509 93.8366 49.1972 93.7349 49.0687 93.6056C48.9402 93.4824 48.8386 93.334 48.7702 93.1696C48.7019 93.0053 48.6683 92.8285 48.6716 92.6506C48.669 92.4078 48.7313 92.1687 48.8521 91.9581C48.9685 91.7499 49.1385 91.5765 49.3444 91.456C49.5539 91.3355 49.7918 91.2732 50.0335 91.2755ZM50.0335 91.5282C49.841 91.531 49.6525 91.5835 49.4863 91.6807C49.3201 91.7779 49.1819 91.9164 49.0851 92.0828C48.9869 92.2545 48.937 92.4496 48.9407 92.6473C48.939 92.7916 48.966 92.9348 49.0202 93.0685C49.0744 93.2023 49.1548 93.3239 49.2565 93.4262C49.3582 93.5286 49.4794 93.6096 49.6128 93.6647C49.7462 93.7197 49.8892 93.7476 50.0335 93.7467C50.2288 93.7475 50.421 93.6977 50.5914 93.6023C50.7585 93.5073 50.8969 93.369 50.9918 93.2019C51.0881 93.0295 51.1378 92.8349 51.1362 92.6374C51.1387 92.4419 51.0888 92.2493 50.9918 92.0795C50.8966 91.9115 50.757 91.773 50.5881 91.6792C50.424 91.5822 50.2373 91.5301 50.0467 91.5282H50.0335Z" fill="#0C2231"/>
<path d="M55.212 93.9337H54.9429V91.9483L53.2331 93.9337H53.1741V91.3412H53.4333V93.3627L55.153 91.3412H55.212V93.9337ZM53.5712 90.7209H53.791C53.8298 90.7818 53.8858 90.8298 53.9518 90.8588C54.0276 90.8907 54.1092 90.9063 54.1914 90.9047C54.2689 90.908 54.3461 90.8946 54.4179 90.8653C54.4831 90.8307 54.5393 90.7812 54.5819 90.7209H54.8084C54.7783 90.831 54.7081 90.9259 54.6115 90.9867C54.4838 91.0628 54.3365 91.0994 54.1881 91.0918C54.0413 91.0984 53.8956 91.0631 53.7681 90.99C53.67 90.9285 53.5986 90.8325 53.5679 90.7209H53.5712Z" fill="#0C2231"/>
<path d="M61.3392 93.9337H61.07V91.9483L59.3701 93.9337H59.311V91.3412H59.5703V93.3627L61.2932 91.3412H61.3392V93.9337Z" fill="#0C2231"/>
<path d="M63.4722 93.9337H63.2129V91.3412H64.5256V91.5971H63.4722V93.9337Z" fill="#0C2231"/>
<path d="M66.1173 91.3412H66.6325C66.8336 91.3338 67.0348 91.347 67.2331 91.3806C67.3753 91.4138 67.5023 91.4935 67.5941 91.607C67.692 91.727 67.7422 91.8789 67.7352 92.0336C67.7408 92.1876 67.692 92.3386 67.5974 92.4603C67.5002 92.5755 67.3674 92.6552 67.22 92.6867C67.0032 92.7231 66.7833 92.7374 66.5636 92.7294H66.3798V93.9338H66.1206L66.1173 91.3412ZM66.3766 91.5972V92.4767H66.813C66.9451 92.4831 67.0772 92.4665 67.2036 92.4274C67.2836 92.3993 67.3518 92.3449 67.3972 92.2732C67.4442 92.2015 67.4692 92.1177 67.4692 92.032C67.4692 91.9463 67.4442 91.8624 67.3972 91.7908C67.3528 91.7208 67.2873 91.6668 67.2101 91.6365C67.0876 91.6013 66.96 91.5869 66.8327 91.5939L66.3766 91.5972Z" fill="#0C2231"/>
<path d="M69.4877 91.3412H69.7469V92.4537H69.934C70.1779 92.4464 70.4219 92.4629 70.6625 92.5029C70.8055 92.5319 70.9329 92.6125 71.0203 92.7293C71.1156 92.8629 71.163 93.0248 71.1548 93.1888C71.1615 93.35 71.1154 93.509 71.0235 93.6417C70.9447 93.756 70.8288 93.8395 70.6954 93.8779C70.4699 93.9245 70.2395 93.9433 70.0095 93.9337H69.4942L69.4877 91.3412ZM69.7469 93.6843H70.0226C70.2129 93.6941 70.4037 93.6798 70.5903 93.6417C70.6772 93.6165 70.7525 93.562 70.8037 93.4874C70.8583 93.3954 70.8855 93.2896 70.882 93.1826C70.8785 93.0756 70.8445 92.9719 70.784 92.8836C70.7218 92.8037 70.6313 92.7508 70.5313 92.7359C70.3431 92.7108 70.1533 92.701 69.9635 92.7064H69.7469V93.6843ZM71.46 91.3412H71.7193V93.9337H71.46V91.3412Z" fill="#0C2231"/>
<path d="M75.7032 93.9337L76.0741 91.3412H76.1069L77.1603 93.4677L78.2039 91.3412H78.2433L78.6174 93.9337H78.3647L78.1088 92.0795L77.1899 93.9337H77.1242L76.1955 92.0664L75.9428 93.9337H75.7032Z" fill="#0C2231"/>
<path d="M81.43 91.3412L82.641 93.9337H82.362L81.9518 93.0805H80.836L80.4323 93.9337H80.1436L81.3676 91.3412H81.43ZM81.3972 91.8925L80.9541 92.8311H81.8402L81.3972 91.8925Z" fill="#0C2231"/>
<path d="M85.4042 91.3412H85.6634V91.6693H85.8603C86.1511 91.6376 86.4429 91.7199 86.6742 91.899C86.8142 92.039 86.8951 92.2275 86.8999 92.4254C86.9048 92.6234 86.8334 92.8156 86.7004 92.9623C86.5966 93.0505 86.4756 93.1161 86.3452 93.1551C86.2147 93.194 86.0775 93.2055 85.9424 93.1888H85.6634V93.9304H85.4042V93.1888H85.1252C84.9616 93.1916 84.7983 93.1728 84.6395 93.133C84.5066 93.0881 84.3916 93.0019 84.3113 92.8869C84.2186 92.7593 84.1702 92.6048 84.1735 92.4471C84.1724 92.3455 84.1916 92.2447 84.2299 92.1506C84.2682 92.0565 84.3249 91.971 84.3967 91.899C84.629 91.7194 84.9219 91.637 85.2138 91.6693H85.414L85.4042 91.3412ZM85.4042 91.922H85.1121C84.9347 91.9124 84.7588 91.9596 84.61 92.0566C84.551 92.1019 84.5038 92.1607 84.4724 92.2281C84.4409 92.2955 84.4262 92.3695 84.4295 92.4438C84.4278 92.5101 84.4398 92.5761 84.4646 92.6376C84.4895 92.6992 84.5267 92.7549 84.5739 92.8015C84.632 92.8524 84.6996 92.891 84.7729 92.9153C84.8462 92.9395 84.9236 92.9488 85.0005 92.9426H85.4042V91.922ZM85.6634 91.922V92.9426H86.0736C86.149 92.948 86.2247 92.9383 86.2962 92.9141C86.3678 92.8899 86.4338 92.8516 86.4904 92.8015C86.5376 92.7549 86.5748 92.6992 86.5996 92.6376C86.6245 92.5761 86.6364 92.5101 86.6348 92.4438C86.6371 92.372 86.623 92.3007 86.5934 92.2353C86.5638 92.1698 86.5196 92.1121 86.4642 92.0664C86.3159 91.9594 86.1346 91.9082 85.9522 91.922H85.6634Z" fill="#0C2231"/>
<path d="M90.6943 93.9337H90.4252V91.9483L88.7155 93.9337H88.6564V91.3412H88.9058V93.3627L90.6287 91.3412H90.6845L90.6943 93.9337Z" fill="#0C2231"/>
<path d="M94.0319 93.9337H93.7726V92.7293H93.6249L92.6929 93.9337H92.3647L93.2968 92.7293C93.1234 92.7375 92.9501 92.7096 92.7881 92.6473C92.6699 92.5981 92.5701 92.5132 92.5026 92.4044C92.4357 92.2913 92.4016 92.1617 92.4041 92.0303C92.3984 91.8752 92.4497 91.7234 92.5485 91.6037C92.6437 91.4877 92.7757 91.4077 92.9226 91.3773C93.1158 91.3472 93.3114 91.3351 93.5068 91.3412H94.0253L94.0319 93.9337ZM93.3132 91.5971C93.1848 91.5905 93.0562 91.6049 92.9325 91.6398C92.8569 91.6712 92.7928 91.725 92.7487 91.794C92.7009 91.8635 92.6757 91.946 92.6765 92.0303C92.6756 92.1162 92.6996 92.2005 92.7454 92.2732C92.7927 92.3452 92.8617 92.4004 92.9423 92.4307C93.0664 92.4695 93.1964 92.4862 93.3263 92.4799H93.7726V91.6004L93.3132 91.5971Z" fill="#0C2231"/>
<path d="M4.0989 83.2878L7.94839 89.8512H7.05575L5.74305 87.6853H2.20533L0.918889 89.8512H0L3.90856 83.2878H4.0989ZM3.99716 84.6858L2.59586 87.0519H5.41488L3.99716 84.6858Z" fill="white"/>
<path d="M18.0202 84.4922L17.3638 84.8893C16.9998 84.516 16.5584 84.227 16.0708 84.0426C15.5409 83.8451 14.979 83.7472 14.4135 83.7538C13.7833 83.7488 13.1592 83.8774 12.5823 84.1312C12.0624 84.3482 11.6094 84.6992 11.2696 85.1485C10.9638 85.5637 10.8014 86.067 10.8069 86.5826C10.8061 86.9757 10.8995 87.3632 11.0794 87.7126C11.2593 88.0621 11.5203 88.3633 11.8406 88.5911C12.599 89.1496 13.525 89.4331 14.466 89.3951C15.5374 89.427 16.5787 89.0382 17.3671 88.3121L18.0234 88.7059C17.5889 89.1392 17.063 89.4699 16.4843 89.674C15.8235 89.9113 15.1254 90.0281 14.4234 90.0186C12.9794 90.0186 11.8406 89.6347 11.0071 88.8667C10.6737 88.5748 10.4073 88.2143 10.226 87.8099C10.0448 87.4055 9.95297 86.9667 9.95691 86.5236C9.95776 86.046 10.0736 85.5757 10.2947 85.1524C10.5158 84.7292 10.8355 84.3653 11.2269 84.0918C12.146 83.4127 13.2683 83.0656 14.4102 83.1073C15.1229 83.0979 15.8309 83.2225 16.4974 83.4748C17.0776 83.6901 17.5992 84.0386 18.0202 84.4922Z" fill="white"/>
<path d="M28.4526 84.4922L27.7963 84.8892C27.4328 84.5153 26.9913 84.2262 26.5033 84.0425C25.9733 83.8451 25.4115 83.7472 24.846 83.7538C24.2169 83.7491 23.5939 83.8777 23.0181 84.1312C22.4977 84.3473 22.0445 84.6985 21.7054 85.1485C21.3996 85.5637 21.2372 86.067 21.2427 86.5826C21.2418 86.9757 21.3353 87.3632 21.5152 87.7126C21.695 88.0621 21.9561 88.3633 22.2764 88.591C23.0969 89.159 24.0823 89.4396 25.0789 89.3892C26.0755 89.3387 27.0275 88.96 27.7865 88.3121L28.4428 88.7059C28.0093 89.1406 27.4832 89.4715 26.9037 89.674C26.2429 89.9116 25.5448 90.0283 24.8427 90.0186C23.3988 90.0186 22.26 89.6346 21.4264 88.8667C21.0935 88.5746 20.8275 88.214 20.6469 87.8096C20.4662 87.4052 20.375 86.9665 20.3796 86.5235C20.3804 86.046 20.4963 85.5757 20.7173 85.1524C20.9384 84.7291 21.2582 84.3653 21.6496 84.0918C22.5684 83.4122 23.6909 83.0651 24.8329 83.1073C25.5444 83.0981 26.2513 83.2228 26.9168 83.4748C27.502 83.6877 28.0283 84.0364 28.4526 84.4922Z" fill="white"/>
<path d="M35.1409 83.104C36.2675 83.0636 37.3738 83.4112 38.2749 84.0885C38.6678 84.3676 38.9881 84.7367 39.2092 85.1649C39.4302 85.593 39.5456 86.0679 39.5456 86.5498C39.5456 87.0317 39.4302 87.5066 39.2092 87.9348C38.9881 88.363 38.6678 88.732 38.2749 89.0111C37.4 89.6951 36.3133 90.0515 35.2032 90.0186C34.0854 90.0531 32.9903 89.6981 32.1053 89.0144C31.7181 88.7387 31.4018 88.3751 31.1822 87.9536C30.9625 87.5321 30.8459 87.0645 30.8418 86.5892C30.8415 85.9572 31.044 85.3418 31.4194 84.8335C31.8191 84.2772 32.3608 83.8386 32.9881 83.5634C33.6633 83.2543 34.3983 83.0974 35.1409 83.104ZM35.177 83.7439C34.5774 83.7419 33.9847 83.8719 33.4409 84.1246C32.9312 84.3496 32.4889 84.7036 32.1578 85.1518C31.8559 85.57 31.6949 86.0734 31.6983 86.5892C31.702 86.9745 31.7963 87.3535 31.9736 87.6956C32.1509 88.0376 32.4062 88.3332 32.719 88.5582C33.4202 89.1036 34.2889 89.3889 35.177 89.3656C35.7885 89.3706 36.394 89.2442 36.9524 88.9947C37.461 88.7754 37.9017 88.4242 38.229 87.9774C38.5277 87.5684 38.6907 87.076 38.695 86.5695C38.6995 86.0602 38.5395 85.5629 38.2388 85.1518C37.9038 84.708 37.4595 84.3586 36.9491 84.1377C36.3941 83.879 35.7893 83.7446 35.177 83.7439Z" fill="white"/>
<path d="M48.4024 89.8512H42.3049V83.2878H43.1286V89.2507H46.9486V83.2878H47.7723V89.2507H49.1868V90.8358H48.4155L48.4024 89.8512Z" fill="white"/>
<path d="M58.0214 89.8512H57.1615V84.8072L51.7204 89.8512H51.5366V83.2878H52.3603V88.4204L57.8343 83.2878H58.0214V89.8512Z" fill="white"/>
<path d="M64.5028 83.2878L68.349 89.8512H67.4596L66.1469 87.6853H62.6059L61.3392 89.8512H60.417L64.2927 83.2878H64.5028ZM64.3978 84.6858L62.98 87.0519H65.8023L64.3978 84.6858Z" fill="white"/>
<path d="M76.8387 89.8512H70.7249V83.2878H71.5486V89.2507H75.3685V83.2878H76.1922V89.2507H77.6067V90.8358H76.8387V89.8512Z" fill="white"/>
<path d="M86.4542 89.8512H85.5944V84.8072L80.1565 89.8512H79.9695V83.2878H80.7965V88.4204L86.2803 83.2878H86.4641L86.4542 89.8512Z" fill="white"/>
<path d="M94.2418 89.8512H93.4181V86.7959H92.9521L89.9985 89.8512H88.9779L91.9315 86.7959C91.3765 86.8152 90.8222 86.7431 90.2906 86.5826C89.9368 86.4677 89.6227 86.255 89.3848 85.9689C89.1707 85.7006 89.0549 85.3671 89.0567 85.0238C89.0527 84.8206 89.0916 84.6189 89.1707 84.4317C89.2499 84.2446 89.3676 84.0762 89.5161 83.9375C89.848 83.6305 90.2639 83.4295 90.7107 83.3599C91.3279 83.2844 91.9498 83.2548 92.5714 83.2713H94.2123L94.2418 89.8512ZM91.9643 83.9146C91.556 83.8969 91.1473 83.9367 90.75 84.0327C90.5194 84.1011 90.314 84.2358 90.1593 84.42C90.0145 84.5864 89.9352 84.7999 89.9362 85.0205C89.9344 85.2447 90.0123 85.4622 90.1561 85.6342C90.3166 85.8268 90.5317 85.9664 90.773 86.0346C91.1728 86.1356 91.5851 86.1787 91.9971 86.1626H93.4181V83.9244L91.9643 83.9146Z" fill="white"/>
</svg>
