<svg width="95" height="94" viewBox="0 0 95 94" fill="none" xmlns="http://www.w3.org/2000/svg">
<path d="M0.298609 73.8396C4.11528 71.1584 7.5808 68.7168 10.9676 66.3343L10.9938 10.817H17.0847L17.0585 62.9574C19.9038 60.9719 24.9117 57.5819 24.9117 57.5819L26.9234 56.2889C26.8709 50.0535 26.9037 60.8833 26.9037 54.648C26.9037 39.506 26.93 26.2839 26.93 10.9253H33.0603L33.034 52.0259C37.0312 49.6761 39.8764 47.8187 43.7555 45.5641L43.7817 0.0102099H5.16872C4.42704 0.0102099 3.68537 -0.0127623 2.94369 0.0102099C2.03006 0.0668543 1.11379 0.0668543 0.200156 0.0102099C0.200156 0.0102099 0.200156 3.69561 0.200156 4.27648C0.200156 33.379 0.173903 41.4783 0.180466 70.5677C0.173903 71.5785 0.255947 72.5597 0.298609 73.8396Z" fill="white"/>
<path d="M84.0553 10.6923H60.8862C60.8862 32.3813 60.8468 18.3912 60.8468 40.4052L83.6943 54.6709C83.6943 54.6709 83.7107 47.4511 83.7107 42.2823C82.0928 42.0887 80.1533 42.1675 78.286 42.1248C76.4187 42.0822 74.4661 42.1248 72.4215 42.1248V31.6232H94.4552C94.4552 41.5374 94.4388 63.4398 94.4388 73.7444L87.1303 68.9236L75.1684 61.1983L58.228 50.2734L51.0508 45.2983C51.0508 13.8624 51.0935 31.5149 51.0935 0.0101929H94.4125V24.7808H84.0553V10.6923Z" fill="white"/>
<path d="M17.9938 80.9019H0.167389C15.6835 70.8204 31.3637 60.4764 47.2506 50.1553C63.0029 60.3943 78.775 70.7088 94.4453 80.9019H76.5172C60.5876 70.571 62.8979 72.0937 47.2112 61.9236C31.659 72.0084 33.8643 70.617 17.9938 80.9019Z" fill="white"/>
<path d="M65.6907 75.6774L72.136 75.6315L73.4684 75.6675L58.9368 66.2457C40.7593 66.121 52.5834 66.1603 34.8291 66.0389L20.4387 75.2869C38.5835 75.4345 47.9102 75.533 65.6907 75.6774Z" fill="white"/>
<path d="M2.0806 93.9337H1.81149V91.9483L0.101705 93.9337H0.0426331V91.3412H0.298609V93.3627L2.01824 91.3412H2.07731L2.0806 93.9337Z" fill="white"/>
<path d="M3.94135 91.3412H4.2006V92.4307H5.5133V91.3412H5.77256V93.9337H5.5133V92.6834H4.2006V93.9337H3.94135V91.3412Z" fill="white"/>
<path d="M7.39053 91.5971V91.3412H8.81153V91.5971H8.23066V93.9337H7.96812V91.5971H7.39053Z" fill="white"/>
<path d="M10.4196 91.3412H11.9062V91.5971H10.6788V92.4077H11.8963V92.6604H10.6788V93.681H11.8963V93.9337H10.4196V91.3412Z" fill="white"/>
<path d="M15.6868 93.9337H15.3947L14.5382 91.9319L13.6619 93.9337H13.3797L14.5086 91.3412H14.5644L15.6868 93.9337Z" fill="white"/>
<path d="M19.4575 93.9337H19.1752L18.3154 91.9319L17.4425 93.9337H17.1602L18.2892 91.3412H18.3482L19.4575 93.9337Z" fill="white"/>
<path d="M21.1279 91.3412H22.6145V91.5971H21.3871V92.4077H22.6145V92.6604H21.397V93.681H22.6145V93.9337H21.1377L21.1279 91.3412Z" fill="white"/>
<path d="M24.298 91.3412H24.5606V92.3257L25.5976 91.3412H25.9455L24.7017 92.5062L26.0439 93.9337H25.7157L24.577 92.7261V93.9337H24.3144L24.298 91.3412Z" fill="white"/>
<path d="M27.4059 91.5971V91.3412H28.8268V91.5971H28.2493V93.9337H27.9867V91.5971H27.4059Z" fill="white"/>
<path d="M30.238 91.3477H30.5301L31.3144 93.11L32.0331 91.3412H32.3186L31.3341 93.6712C31.2989 93.7713 31.2322 93.8573 31.1441 93.9165C31.056 93.9756 30.9511 94.0047 30.8451 93.9994C30.7536 93.9995 30.6631 93.9805 30.5793 93.9436C30.4532 93.8751 30.3417 93.7825 30.2511 93.6712L30.4415 93.517C30.5178 93.6014 30.605 93.6753 30.7007 93.7368C30.7426 93.7534 30.787 93.7623 30.832 93.7631C30.8956 93.7643 30.9578 93.7447 31.0092 93.7073C31.0854 93.6313 31.1418 93.5378 31.1733 93.4349L30.238 91.3477Z" fill="white"/>
<path d="M35.0622 91.3412L36.2699 93.9337H35.9909L35.584 93.0805H34.4682L34.0613 93.9337H33.7725L34.9998 91.3412H35.0622ZM35.0294 91.8925L34.5863 92.8311H35.4724L35.0294 91.8925Z" fill="white"/>
<path d="M40.0078 93.9337H39.7255L38.8657 91.9319L37.9928 93.9337H37.7105L38.8395 91.3412H38.8953L40.0078 93.9337Z" fill="white"/>
<path d="M41.6749 91.3412H41.9341V92.4537H42.1212C42.3661 92.4465 42.6112 92.4629 42.853 92.5029C42.9957 92.5327 43.1227 92.6132 43.2107 92.7293C43.306 92.8629 43.3535 93.0248 43.3453 93.1888C43.3519 93.35 43.3059 93.509 43.214 93.6417C43.1354 93.7562 43.0194 93.8397 42.8858 93.8779C42.6604 93.9247 42.43 93.9434 42.1999 93.9337H41.6847L41.6749 91.3412ZM41.9341 93.6843H42.2098C42.4012 93.694 42.593 93.6796 42.7808 93.6417C42.8676 93.6165 42.943 93.562 42.9941 93.4874C43.0497 93.4017 43.0772 93.3007 43.0729 93.1986C43.0814 93.0803 43.045 92.9632 42.9712 92.8705C42.9103 92.7908 42.8209 92.7379 42.7217 92.7228C42.5336 92.6978 42.3437 92.6879 42.154 92.6932H41.9341V93.6843Z" fill="white"/>
<path d="M45.0945 91.3412H45.3537V92.4307H46.6664V91.3412H46.9257V93.9337H46.6664V92.6834H45.3537V93.9337H45.0945V91.3412Z" fill="white"/>
<path d="M50.0335 91.2755C50.2157 91.2712 50.3968 91.3039 50.5661 91.3716C50.7353 91.4393 50.889 91.5406 51.018 91.6693C51.2087 91.8603 51.3386 92.1034 51.3912 92.3681C51.4438 92.6328 51.4167 92.9071 51.3135 93.1565C51.2102 93.4058 51.0354 93.6189 50.8111 93.769C50.5868 93.919 50.323 93.9992 50.0532 93.9994C49.8709 94.0044 49.6895 93.9721 49.5201 93.9043C49.3508 93.8366 49.1972 93.7349 49.0686 93.6056C48.9401 93.4824 48.8385 93.334 48.7702 93.1696C48.7018 93.0053 48.6683 92.8285 48.6715 92.6506C48.6689 92.4078 48.7312 92.1687 48.852 91.9581C48.9685 91.7499 49.1384 91.5765 49.3443 91.456C49.5538 91.3355 49.7918 91.2732 50.0335 91.2755ZM50.0335 91.5282C49.841 91.531 49.6525 91.5835 49.4863 91.6807C49.3201 91.7779 49.1819 91.9164 49.085 92.0828C48.9869 92.2545 48.937 92.4496 48.9407 92.6473C48.9389 92.7916 48.9659 92.9348 49.0202 93.0685C49.0744 93.2023 49.1547 93.3239 49.2564 93.4262C49.3582 93.5286 49.4793 93.6096 49.6127 93.6647C49.7461 93.7197 49.8892 93.7476 50.0335 93.7467C50.2288 93.7475 50.421 93.6977 50.5914 93.6023C50.7585 93.5073 50.8968 93.369 50.9917 93.2019C51.088 93.0295 51.1378 92.8349 51.1361 92.6374C51.1386 92.4419 51.0888 92.2493 50.9917 92.0795C50.8966 91.9115 50.7569 91.773 50.5881 91.6792C50.424 91.5822 50.2372 91.5301 50.0466 91.5282H50.0335Z" fill="white"/>
<path d="M55.2121 93.9337H54.943V91.9483L53.2332 93.9337H53.1741V91.3412H53.4334V93.3627L55.153 91.3412H55.2121V93.9337ZM53.5712 90.7209H53.7911C53.8298 90.7818 53.8858 90.8298 53.9519 90.8588C54.0276 90.8907 54.1093 90.9063 54.1914 90.9047C54.2689 90.908 54.3461 90.8946 54.4179 90.8653C54.4831 90.8307 54.5393 90.7812 54.582 90.7209H54.8084C54.7784 90.831 54.7081 90.9259 54.6115 90.9867C54.4839 91.0628 54.3366 91.0994 54.1882 91.0918C54.0413 91.0984 53.8956 91.0631 53.7681 90.99C53.6701 90.9285 53.5986 90.8325 53.5679 90.7209H53.5712Z" fill="white"/>
<path d="M61.3391 93.9337H61.07V91.9483L59.37 93.9337H59.311V91.3412H59.5702V93.3627L61.2931 91.3412H61.3391V93.9337Z" fill="white"/>
<path d="M63.4722 93.9337H63.213V91.3412H64.5256V91.5971H63.4722V93.9337Z" fill="white"/>
<path d="M66.1173 91.3412H66.6325C66.8336 91.3338 67.0348 91.347 67.2331 91.3806C67.3753 91.4138 67.5023 91.4935 67.5941 91.607C67.692 91.727 67.7422 91.8789 67.7352 92.0336C67.7408 92.1876 67.692 92.3386 67.5974 92.4603C67.5002 92.5755 67.3674 92.6552 67.22 92.6867C67.0032 92.7231 66.7833 92.7374 66.5636 92.7294H66.3798V93.9338H66.1206L66.1173 91.3412ZM66.3766 91.5972V92.4767H66.813C66.9451 92.4831 67.0772 92.4665 67.2036 92.4274C67.2836 92.3993 67.3518 92.3449 67.3972 92.2732C67.4442 92.2015 67.4692 92.1177 67.4692 92.032C67.4692 91.9463 67.4442 91.8624 67.3972 91.7908C67.3528 91.7208 67.2873 91.6668 67.2101 91.6365C67.0876 91.6013 66.96 91.5869 66.8327 91.5939L66.3766 91.5972Z" fill="white"/>
<path d="M69.4877 91.3412H69.7469V92.4537H69.934C70.1779 92.4464 70.4219 92.4629 70.6625 92.5029C70.8055 92.5319 70.9329 92.6125 71.0203 92.7293C71.1156 92.8629 71.163 93.0248 71.1548 93.1888C71.1615 93.35 71.1154 93.509 71.0235 93.6417C70.9447 93.756 70.8288 93.8395 70.6954 93.8779C70.4699 93.9245 70.2395 93.9433 70.0095 93.9337H69.4942L69.4877 91.3412ZM69.7469 93.6843H70.0226C70.2129 93.6941 70.4037 93.6798 70.5903 93.6417C70.6772 93.6165 70.7525 93.562 70.8037 93.4874C70.8583 93.3954 70.8855 93.2896 70.882 93.1826C70.8785 93.0756 70.8445 92.9719 70.784 92.8836C70.7218 92.8037 70.6313 92.7508 70.5313 92.7359C70.3431 92.7108 70.1533 92.701 69.9635 92.7064H69.7469V93.6843ZM71.46 91.3412H71.7193V93.9337H71.46V91.3412Z" fill="white"/>
<path d="M75.7033 93.9337L76.0741 91.3412H76.107L77.1604 93.4677L78.204 91.3412H78.2434L78.6175 93.9337H78.3648L78.1088 92.0795L77.1899 93.9337H77.1243L76.1956 92.0664L75.9429 93.9337H75.7033Z" fill="white"/>
<path d="M81.4299 91.3412L82.6409 93.9337H82.362L81.9517 93.0805H80.8359L80.4323 93.9337H80.1435L81.3676 91.3412H81.4299ZM81.3971 91.8925L80.9541 92.8311H81.8402L81.3971 91.8925Z" fill="white"/>
<path d="M85.4041 91.3412H85.6634V91.6693H85.8603C86.1511 91.6376 86.4429 91.7199 86.6742 91.899C86.8142 92.039 86.895 92.2275 86.8999 92.4254C86.9048 92.6234 86.8334 92.8156 86.7004 92.9623C86.5966 93.0505 86.4756 93.1161 86.3451 93.1551C86.2146 93.194 86.0775 93.2055 85.9423 93.1888H85.6634V93.9304H85.4041V93.1888H85.1252C84.9615 93.1916 84.7982 93.1728 84.6395 93.133C84.5066 93.0881 84.3916 93.0019 84.3113 92.8869C84.2186 92.7593 84.1701 92.6048 84.1735 92.4471C84.1724 92.3455 84.1916 92.2447 84.2299 92.1506C84.2682 92.0565 84.3249 91.971 84.3966 91.899C84.6289 91.7194 84.9219 91.637 85.2138 91.6693H85.414L85.4041 91.3412ZM85.4041 91.922H85.1121C84.9346 91.9124 84.7588 91.9596 84.6099 92.0566C84.551 92.1019 84.5038 92.1607 84.4723 92.2281C84.4409 92.2955 84.4262 92.3695 84.4294 92.4438C84.4278 92.5101 84.4398 92.5761 84.4646 92.6376C84.4894 92.6992 84.5266 92.7549 84.5738 92.8015C84.6319 92.8524 84.6996 92.891 84.7729 92.9153C84.8461 92.9395 84.9235 92.9488 85.0005 92.9426H85.4041V91.922ZM85.6634 91.922V92.9426H86.0736C86.149 92.948 86.2247 92.9383 86.2962 92.9141C86.3678 92.8899 86.4338 92.8516 86.4904 92.8015C86.5376 92.7549 86.5748 92.6992 86.5996 92.6376C86.6245 92.5761 86.6364 92.5101 86.6348 92.4438C86.6371 92.372 86.6229 92.3007 86.5933 92.2353C86.5638 92.1698 86.5196 92.1121 86.4641 92.0664C86.3159 91.9594 86.1345 91.9082 85.9522 91.922H85.6634Z" fill="white"/>
<path d="M90.6943 93.9337H90.4252V91.9483L88.7154 93.9337H88.6563V91.3412H88.9057V93.3627L90.6286 91.3412H90.6844L90.6943 93.9337Z" fill="white"/>
<path d="M94.0318 93.9337H93.7725V92.7293H93.6249L92.6929 93.9337H92.3647L93.2967 92.7293C93.1233 92.7375 92.9501 92.7096 92.788 92.6473C92.6699 92.5981 92.57 92.5132 92.5025 92.4044C92.4356 92.2913 92.4016 92.1617 92.4041 92.0303C92.3983 91.8752 92.4497 91.7234 92.5485 91.6037C92.6436 91.4877 92.7757 91.4077 92.9226 91.3773C93.1158 91.3472 93.3113 91.3351 93.5067 91.3412H94.0252L94.0318 93.9337ZM93.3131 91.5971C93.1847 91.5905 93.0561 91.6049 92.9324 91.6398C92.8568 91.6712 92.7927 91.725 92.7486 91.794C92.7009 91.8635 92.6757 91.946 92.6764 92.0303C92.6756 92.1162 92.6995 92.2005 92.7454 92.2732C92.7927 92.3452 92.8616 92.4004 92.9423 92.4307C93.0664 92.4695 93.1963 92.4862 93.3262 92.4799H93.7725V91.6004L93.3131 91.5971Z" fill="white"/>
<path d="M4.0989 83.2878L7.94839 89.8512H7.05575L5.74305 87.6853H2.20533L0.918889 89.8512H0L3.90856 83.2878H4.0989ZM3.99716 84.6858L2.59586 87.0519H5.41488L3.99716 84.6858Z" fill="white"/>
<path d="M18.0201 84.4922L17.3637 84.8893C16.9997 84.516 16.5584 84.227 16.0707 84.0426C15.5408 83.8451 14.9789 83.7472 14.4134 83.7538C13.7832 83.7488 13.1591 83.8774 12.5822 84.1312C12.0623 84.3482 11.6094 84.6992 11.2695 85.1485C10.9637 85.5637 10.8013 86.067 10.8068 86.5826C10.806 86.9757 10.8994 87.3632 11.0793 87.7126C11.2592 88.0621 11.5202 88.3633 11.8405 88.5911C12.5989 89.1496 13.5249 89.4331 14.4659 89.3951C15.5373 89.427 16.5786 89.0382 17.367 88.3121L18.0233 88.7059C17.5888 89.1392 17.0629 89.4699 16.4842 89.674C15.8234 89.9113 15.1253 90.0281 14.4233 90.0186C12.9793 90.0186 11.8405 89.6347 11.007 88.8667C10.6736 88.5748 10.4072 88.2143 10.2259 87.8099C10.0447 87.4055 9.95288 86.9667 9.95682 86.5236C9.95767 86.046 10.0735 85.5757 10.2946 85.1524C10.5157 84.7292 10.8354 84.3653 11.2269 84.0918C12.1459 83.4127 13.2682 83.0656 14.4101 83.1073C15.1228 83.0979 15.8308 83.2225 16.4973 83.4748C17.0775 83.6901 17.5991 84.0386 18.0201 84.4922Z" fill="white"/>
<path d="M28.4527 84.4922L27.7964 84.8892C27.4329 84.5153 26.9914 84.2262 26.5034 84.0425C25.9734 83.8451 25.4116 83.7472 24.8461 83.7538C24.217 83.7491 23.594 83.8777 23.0182 84.1312C22.4978 84.3473 22.0446 84.6985 21.7055 85.1485C21.3997 85.5637 21.2373 86.067 21.2427 86.5826C21.2419 86.9757 21.3354 87.3632 21.5153 87.7126C21.6951 88.0621 21.9562 88.3633 22.2765 88.591C23.097 89.159 24.0824 89.4396 25.079 89.3892C26.0756 89.3387 27.0276 88.96 27.7865 88.3121L28.4429 88.7059C28.0094 89.1406 27.4833 89.4715 26.9038 89.674C26.243 89.9116 25.5449 90.0283 24.8428 90.0186C23.3989 90.0186 22.2601 89.6346 21.4265 88.8667C21.0936 88.5746 20.8276 88.214 20.647 87.8096C20.4663 87.4052 20.3751 86.9665 20.3796 86.5235C20.3805 86.046 20.4964 85.5757 20.7174 85.1524C20.9385 84.7291 21.2583 84.3653 21.6497 84.0918C22.5685 83.4122 23.691 83.0651 24.833 83.1073C25.5445 83.0981 26.2514 83.2228 26.9169 83.4748C27.5021 83.6877 28.0284 84.0364 28.4527 84.4922Z" fill="white"/>
<path d="M35.1409 83.104C36.2675 83.0636 37.3739 83.4112 38.275 84.0885C38.6678 84.3676 38.9882 84.7367 39.2092 85.1649C39.4303 85.593 39.5456 86.0679 39.5456 86.5498C39.5456 87.0317 39.4303 87.5066 39.2092 87.9348C38.9882 88.363 38.6678 88.732 38.275 89.0111C37.4 89.6951 36.3134 90.0515 35.2033 90.0186C34.0855 90.0531 32.9904 89.6981 32.1053 89.0144C31.7182 88.7387 31.4018 88.3751 31.1822 87.9536C30.9626 87.5321 30.846 87.0645 30.8419 86.5892C30.8416 85.9572 31.044 85.3418 31.4194 84.8335C31.8191 84.2772 32.3609 83.8386 32.9881 83.5634C33.6634 83.2543 34.3983 83.0974 35.1409 83.104ZM35.177 83.7439C34.5774 83.7419 33.9847 83.8719 33.441 84.1246C32.9312 84.3496 32.4889 84.7036 32.1578 85.1518C31.8559 85.57 31.695 86.0734 31.6984 86.5892C31.702 86.9745 31.7963 87.3535 31.9736 87.6956C32.151 88.0376 32.4063 88.3332 32.719 88.5582C33.4203 89.1036 34.289 89.3889 35.177 89.3656C35.7886 89.3706 36.3941 89.2442 36.9525 88.9947C37.461 88.7754 37.9018 88.4242 38.2291 87.9774C38.5278 87.5684 38.6908 87.076 38.6951 86.5695C38.6996 86.0602 38.5396 85.5629 38.2389 85.1518C37.9039 84.708 37.4595 84.3586 36.9492 84.1377C36.3942 83.879 35.7894 83.7446 35.177 83.7439Z" fill="white"/>
<path d="M48.4024 89.8512H42.305V83.2878H43.1287V89.2507H46.9486V83.2878H47.7723V89.2507H49.1868V90.8358H48.4156L48.4024 89.8512Z" fill="white"/>
<path d="M58.0213 89.8512H57.1614V84.8072L51.7203 89.8512H51.5365V83.2878H52.3603V88.4204L57.8342 83.2878H58.0213V89.8512Z" fill="white"/>
<path d="M64.5027 83.2878L68.3489 89.8512H67.4596L66.1469 87.6853H62.6058L61.3391 89.8512H60.4169L64.2927 83.2878H64.5027ZM64.3977 84.6858L62.98 87.0519H65.8023L64.3977 84.6858Z" fill="white"/>
<path d="M76.8388 89.8512H70.7249V83.2878H71.5486V89.2507H75.3686V83.2878H76.1923V89.2507H77.6067V90.8358H76.8388V89.8512Z" fill="white"/>
<path d="M86.4543 89.8512H85.5945V84.8072L80.1566 89.8512H79.9695V83.2878H80.7965V88.4204L86.2803 83.2878H86.4641L86.4543 89.8512Z" fill="white"/>
<path d="M94.2419 89.8512H93.4181V86.7959H92.9521L89.9986 89.8512H88.9779L91.9315 86.7959C91.3766 86.8152 90.8222 86.7431 90.2906 86.5826C89.9368 86.4677 89.6228 86.255 89.3849 85.9689C89.1708 85.7006 89.0549 85.3671 89.0567 85.0238C89.0527 84.8206 89.0916 84.6189 89.1707 84.4317C89.2499 84.2446 89.3676 84.0762 89.5161 83.9375C89.8481 83.6305 90.264 83.4295 90.7107 83.3599C91.3279 83.2844 91.9499 83.2548 92.5715 83.2713H94.2123L94.2419 89.8512ZM91.9643 83.9146C91.556 83.8969 91.1473 83.9367 90.7501 84.0327C90.5195 84.1011 90.3141 84.2358 90.1594 84.42C90.0146 84.5864 89.9352 84.7999 89.9362 85.0205C89.9344 85.2447 90.0123 85.4622 90.1561 85.6342C90.3167 85.8268 90.5317 85.9664 90.7731 86.0346C91.1728 86.1356 91.5851 86.1787 91.9971 86.1626H93.4181V83.9244L91.9643 83.9146Z" fill="white"/>
</svg>
