<svg width="35" height="35" viewBox="0 0 35 35" fill="none" xmlns="http://www.w3.org/2000/svg">
<path d="M4.40918 6.51124C4.57051 6.38067 4.71406 6.21456 4.89521 6.12433C6.45147 5.3571 8.11855 4.839 9.83555 4.58897C10.1773 4.53839 10.4337 4.69835 10.4897 5.00323C10.5417 5.28692 10.353 5.54054 10.0222 5.59181C8.69664 5.79371 7.4003 6.15475 6.16123 6.6671C5.43662 6.97267 5.43457 6.96651 5.43457 7.74786C5.43457 9.65304 5.42979 11.5589 5.43457 13.4641C5.44756 17.4221 8.05273 20.7867 11.8774 21.8039C12.1591 21.8791 12.4243 21.9078 12.7019 21.7991C13.3736 21.5316 14.0456 21.2648 14.7178 20.9986C14.8661 20.9399 14.9078 20.8373 14.9064 20.6801C14.8996 19.8085 14.8976 18.9369 14.9064 18.0653C14.9064 17.8924 14.847 17.8069 14.7014 17.7311C13.0229 16.8556 11.3618 16.8857 9.71797 17.8213C9.64414 17.863 9.57441 17.9129 9.4999 17.9546C9.09727 18.1781 8.7083 17.9478 8.70625 17.4857C8.69873 15.8102 10.1069 14.24 11.7824 14.0431C12.9206 13.9064 13.9084 14.2215 14.754 14.9919C14.7855 15.0196 14.8186 15.0454 14.8531 15.0692C14.8579 15.0692 14.8688 15.0692 14.9051 15.061C14.9051 14.8654 14.9105 14.6638 14.9051 14.4621C14.8955 14.1887 15.0206 14.0144 15.2612 13.8968C16.3999 13.3288 17.6015 12.897 18.8412 12.6103C19.0791 12.5569 19.1475 12.466 19.1461 12.2227C19.1338 10.5652 19.1338 8.90747 19.1461 7.24952C19.1461 7.04444 19.0777 6.95216 18.898 6.87081C17.5271 6.25192 16.0782 5.823 14.5913 5.59591C14.2167 5.53849 14.039 5.30812 14.0923 4.98751C14.1429 4.68331 14.4047 4.53976 14.7759 4.59444C16.5097 4.85287 18.193 5.37817 19.7661 6.15167C20.0471 6.28839 20.1701 6.47911 20.1688 6.79288C20.1612 8.52716 20.1646 10.2621 20.1688 11.9964V12.3191C20.6336 12.2719 21.0643 12.2179 21.497 12.1858C24.5909 11.9526 27.5276 12.533 30.3153 13.9002C30.426 13.9467 30.5194 14.0264 30.5829 14.1282C30.6463 14.2301 30.6765 14.3492 30.6694 14.469C30.6646 16.8103 30.6886 19.1516 30.6585 21.4929C30.6031 25.8775 27.2316 29.8485 22.9236 30.6387C22.8228 30.6548 22.7199 30.652 22.6201 30.6305C20.7144 30.2446 18.9699 29.2913 17.6158 27.8958C16.2617 26.5004 15.3613 24.728 15.0329 22.8115C14.9926 22.5709 14.9646 22.3269 14.9324 22.0787C14.4983 22.2524 14.0841 22.4062 13.6794 22.5812C12.7613 22.979 11.8597 22.9565 10.9252 22.5969C7.22627 21.1736 5.0709 18.5186 4.47207 14.5988C4.44883 14.4491 4.43037 14.2994 4.40918 14.149V6.51124ZM29.5941 18.3203H29.6338C29.6338 17.2013 29.6283 16.0822 29.6386 14.9632C29.6386 14.7697 29.5764 14.6802 29.4041 14.605C24.9945 12.6686 20.5839 12.6661 16.1725 14.5975C15.9879 14.6781 15.9243 14.7725 15.925 14.9762C15.9332 17.0181 15.925 19.06 15.9325 21.1019C15.9264 21.469 15.9467 21.8362 15.9934 22.2004C16.5211 25.7619 18.4933 28.1422 21.8723 29.385C22.5189 29.6236 23.1212 29.6058 23.7549 29.3658C27.1797 28.0704 29.1751 25.6266 29.5764 21.983C29.7056 20.7758 29.5941 19.5426 29.5941 18.3203ZM14.5817 16.5273C14.2399 15.6509 13.2303 15.0165 12.2534 15.0322C11.2766 15.048 10.2799 15.7008 9.99756 16.5218C11.5227 15.9346 13.0341 15.9277 14.5817 16.5273Z" fill="white"/>
<path d="M12.4584 4.40918C12.522 4.46113 12.5911 4.50898 12.6492 4.56709C12.6981 4.61525 12.7368 4.67282 12.7629 4.73633C12.789 4.79984 12.8019 4.86798 12.801 4.93663C12.8 5.00529 12.7852 5.07304 12.7574 5.1358C12.7295 5.19857 12.6893 5.25505 12.639 5.30183C12.5888 5.34862 12.5296 5.38475 12.465 5.40804C12.4004 5.43133 12.3317 5.4413 12.2632 5.43736C12.1946 5.43341 12.1276 5.41562 12.0661 5.38506C12.0046 5.35451 11.95 5.31182 11.9054 5.25957C11.8612 5.20815 11.8276 5.14849 11.8065 5.08402C11.7855 5.01955 11.7774 4.95156 11.7827 4.88395C11.7881 4.81634 11.8067 4.75045 11.8376 4.69009C11.8685 4.62972 11.9111 4.57607 11.9628 4.53223C12.0236 4.48736 12.0871 4.44627 12.1529 4.40918H12.4584Z" fill="white"/>
<path d="M9.07674 11.4222C8.28924 11.3962 7.63641 11.1412 7.09022 10.6285C6.83865 10.3927 6.80721 10.1076 7.00408 9.88067C7.20096 9.65371 7.50311 9.63867 7.77518 9.86768C8.61736 10.5766 9.51492 10.5779 10.366 9.86768C10.6394 9.63799 10.9334 9.64073 11.1378 9.8752C11.3422 10.1097 11.3059 10.3886 11.0564 10.6272C10.5235 11.1372 9.81439 11.422 9.07674 11.4222Z" fill="white"/>
<path d="M15.791 11.4222C15.0478 11.4217 14.3332 11.1356 13.7949 10.623C13.5481 10.3913 13.5215 10.0987 13.7204 9.87108C13.9193 9.64345 14.2283 9.61952 14.4689 9.85536C14.8231 10.1971 15.2965 10.3875 15.7886 10.3862C16.2808 10.385 16.7532 10.1921 17.1056 9.84852C17.152 9.7972 17.2088 9.75636 17.2722 9.72876C17.3357 9.70115 17.4043 9.6874 17.4734 9.68844C17.5426 9.68947 17.6108 9.70527 17.6733 9.73476C17.7359 9.76425 17.7915 9.80677 17.8363 9.85946C18.0414 10.0775 18.0202 10.3797 17.7803 10.6114C17.2266 11.148 16.5539 11.401 15.791 11.4222Z" fill="white"/>
<path d="M22.7725 26.0319C21.849 26.0281 20.9624 25.6693 20.2962 25.0297C19.63 24.3901 19.2353 23.5188 19.1939 22.5962C19.1843 22.3754 19.2479 22.186 19.4421 22.0698C19.6588 21.9331 19.8618 21.9933 20.0641 22.1238C21.2338 22.8758 22.5039 23.0966 23.8608 22.8149C24.4296 22.6956 24.9705 22.4694 25.4549 22.1484C25.66 22.0117 25.8651 21.9304 26.0982 22.0637C26.3313 22.197 26.3641 22.4137 26.3552 22.6591C26.2882 24.5014 24.6627 26.0353 22.7725 26.0319ZM25.0749 23.5101C23.5245 24.1097 22.0103 24.1035 20.4832 23.5136C20.7942 24.353 21.7772 24.9894 22.7493 25.0058C23.7214 25.0223 24.7276 24.3899 25.0749 23.5101Z" fill="white"/>
<path d="M26.5275 17.4316C27.0463 17.4412 27.6971 17.6962 28.246 18.2055C28.501 18.4413 28.5352 18.7523 28.3349 18.9731C28.1346 19.1939 27.8277 19.1939 27.5618 18.9677C26.7462 18.2738 25.8042 18.2725 24.9908 18.9677C24.7228 19.1953 24.4193 19.2001 24.2169 18.9786C24.0146 18.7571 24.0488 18.4495 24.3017 18.2116C24.8445 17.6948 25.5438 17.4221 26.5275 17.4316Z" fill="white"/>
<path d="M19.5507 17.4241C20.2832 17.4189 20.9899 17.6937 21.5263 18.1925C21.7854 18.4297 21.8257 18.7339 21.6323 18.9595C21.4388 19.185 21.1216 19.1939 20.8421 18.9547C20.0443 18.2711 19.0777 18.2711 18.2902 18.9547C18.0133 19.1939 17.7016 19.198 17.4986 18.9642C17.2956 18.7305 17.3386 18.4413 17.6004 18.1993C18.1275 17.701 18.8254 17.4236 19.5507 17.4241Z" fill="white"/>
</svg>
