<svg width="21" height="20" viewBox="0 0 21 20" fill="none" xmlns="http://www.w3.org/2000/svg">
<path d="M7.4024 2.34692C7.78323 2.34692 8.09195 2.65564 8.09195 3.03647C8.09195 3.41738 7.7831 3.72614 7.40219 3.72602L2.1669 3.72439C1.65103 3.72439 1.37931 3.99474 1.37931 4.50876V17.8343C1.37931 18.3488 1.65103 18.6209 2.16506 18.6209H15.491C16.0041 18.6209 16.2759 18.3483 16.2759 17.8334V12.46C16.2759 12.0791 16.5846 11.7704 16.9655 11.7704C17.3464 11.7704 17.6552 12.0791 17.6552 12.46V18.2071C17.6432 18.2439 17.628 18.2798 17.6193 18.3175C17.446 19.0862 16.9926 19.6127 16.2533 19.8876C16.1264 19.9336 15.9926 19.963 15.8621 20.0002H1.7931C1.75632 19.9883 1.72046 19.9727 1.68276 19.9644C1.07448 19.8334 0.593103 19.5124 0.289195 18.969C0.158161 18.7345 0.0942529 18.4632 0 18.2071V4.13819C0.0133244 4.10841 0.0243901 4.07767 0.0331035 4.04623C0.142529 3.49451 0.412874 3.0306 0.888736 2.73129C1.1646 2.55934 1.48966 2.47244 1.7931 2.34692L7.4024 2.34692Z" fill="#0C2231"/>
<path d="M16.179 4.90639L16.0402 5.04527C14.1599 6.92555 8.95747 12.3977 7.07738 14.2778C6.7487 14.6065 6.2773 14.6154 5.97201 14.3036C5.83909 14.1667 5.76301 13.9846 5.7591 13.7938C5.7552 13.6031 5.82377 13.418 5.95099 13.2758C5.99244 13.229 6.03834 13.1855 6.08275 13.1411L15.1148 3.83922C15.0349 3.83626 14.9825 3.833 14.9307 3.8327C14.2662 3.83211 13.6011 3.83744 12.9364 3.83063C12.3465 3.82471 11.9826 3.22805 12.2595 2.72378C12.4052 2.45965 12.6379 2.3264 12.9417 2.32581C13.4174 2.32384 13.8938 2.32344 14.3707 2.32463C15.1919 2.32463 16.014 2.32433 16.837 2.32374C17.4005 2.32403 17.6951 2.62044 17.6954 3.1863C17.6958 4.47378 17.6957 5.76135 17.6951 7.04903C17.6945 7.4926 17.404 7.82098 16.9966 7.84822C16.5524 7.87783 16.1939 7.54353 16.19 7.07953C16.1844 6.41476 16.1885 5.7503 16.1879 5.08524C16.1864 5.03697 16.1832 4.98634 16.179 4.90639Z" fill="#0C2231"/>
</svg>
