<svg width="200" height="200" viewBox="0 0 200 200" fill="none" xmlns="http://www.w3.org/2000/svg">
<path d="M56.25 25.1953C59.0117 25.8437 61.6992 26.6562 63.996 28.4258C65.7829 29.7557 67.2894 31.4256 68.429 33.3394C69.5686 35.2533 70.3188 37.3735 70.6367 39.5781C70.6796 39.8516 70.7656 40.1172 70.8632 40.5273C71.7187 40.1758 72.4648 39.8477 73.207 39.5586C97.608 30.2044 120.525 33.0039 141.957 47.957C142.91 48.625 143.457 48.668 144.457 47.9922C149.789 44.4062 155.5 43.8984 161.254 46.7812C167.113 49.7148 170.156 54.7148 170.48 61.2344C170.754 66.7695 168.855 71.7812 166.121 76.5C165.854 76.8943 165.692 77.3502 165.651 77.8246C165.609 78.2989 165.689 78.7761 165.883 79.2109C179.684 115.07 162.758 154.898 127.324 169.797C114.687 175.109 101.543 176.516 88.0195 174.113C60.4726 169.219 38.8007 149.137 31.8437 121.992C29.1055 111.255 28.9528 100.022 31.3984 89.2148C31.789 87.3789 32.9023 86.5703 34.3398 87.0039C35.6054 87.3945 35.9726 88.4609 35.7031 90.2656C35.1484 93.9766 34.414 97.6875 34.2382 101.418C33.4062 118.699 38.5742 134.062 49.7109 147.281C60.4218 159.992 74.1015 167.867 90.5703 170.047C115.414 173.328 136.086 165.074 151.937 145.68C162.484 132.77 167.004 117.664 166.168 100.988C166.168 100.664 166.102 100.344 166.082 100.164C164.156 100.793 162.32 101.625 160.398 101.984C154.742 103.039 148.785 100.602 146.137 95.5508C143.506 90.4917 141.272 85.2364 139.453 79.832C138.547 77.168 138.949 74.0625 138.73 71.1641C138.695 70.4422 138.584 69.726 138.398 69.0273C136.738 63.2188 136.637 57.5703 140.246 52.0937C127.383 42.5391 113.035 38.0586 96.539 38.6719C97.082 39.8867 97.3476 40.9648 97.9687 41.7695C99.3046 43.5039 100.832 45.0977 102.266 46.7578C105.742 50.7852 105.602 55.8906 101.875 59.668C98.7226 62.8633 95.5234 66.0156 92.3515 69.1992C90.9196 70.675 89.199 71.84 87.2971 72.6216C85.3952 73.4032 83.3527 73.7846 81.2968 73.7422C78.2187 73.7422 75.1445 73.7773 72.0703 73.7422C69.0704 73.6787 66.1329 74.6039 63.7109 76.375C61.4101 78.0234 59.0468 79.582 56.7382 81.2187C54.7382 82.6406 52.6367 83.0352 50.4257 81.8359C48.2773 80.6641 47.4257 78.7656 47.4492 76.3672C47.4804 72.6758 47.4492 68.9844 47.1796 65.1758C46.3632 66.3477 45.4218 67.4609 44.7539 68.7148C42.664 72.6211 40.6445 76.5625 38.6601 80.5234C37.9296 81.9844 37.125 82.5976 35.8828 82.3164C34.4609 81.9961 33.9062 80.5976 34.5664 78.9101C36.8711 73.0498 39.9605 67.5294 43.75 62.5L44.5312 61.4492C42.6406 57.6055 40.5781 54.0977 39.1484 50.3477C37.246 45.3594 36.746 40.1445 39.0703 35.0898C41.5156 29.7656 45.7109 26.5273 51.496 25.4648C51.7258 25.4018 51.9493 25.3181 52.164 25.2148L56.25 25.1953ZM51.8554 68.6641C51.8554 71.3672 51.8164 73.8516 51.8867 76.3359C51.8867 76.8867 52.1679 77.6914 52.5703 77.8984C52.9726 78.1055 53.7929 77.875 54.2539 77.5703C56.6523 75.9844 59 74.3203 61.3554 72.6719C64.4243 70.465 68.1228 69.3061 71.9023 69.3672C74.9257 69.4102 77.9531 69.3672 80.9765 69.3672C82.5653 69.4192 84.147 69.1326 85.6165 68.5265C87.0861 67.9204 88.4098 67.0085 89.5 65.8516C92.3906 62.8828 95.3593 59.9922 98.2851 57.0469C100.996 54.3125 100.984 52.0898 98.5625 49.1328C96.0507 46.0664 92.4453 43.6641 92.3789 39.0508C85.587 39.8777 78.9589 41.7253 72.7187 44.5312C71.2187 45.1914 70.4414 46.0391 70.0546 47.7266C68.3476 55.1797 64.0195 61.1406 58.9257 66.6484C56.9843 68.75 54.8593 69.7812 51.8554 68.6641ZM66.4687 42.3711C66.5039 33.5898 58.2343 27.5273 50.2578 30.2617C44.1093 32.3672 40.9179 38.4648 42.3398 45.4961C43.8554 53.0078 48.1992 58.8828 53.3398 64.2734C54.1015 65.0547 54.7265 64.7852 55.2929 64.082C57.5351 61.2695 59.9414 58.5586 61.9531 55.5859C64.6562 51.5625 66.2929 47.082 66.4687 42.3711ZM141.633 61.8828C141.758 62.9453 141.82 64.0234 142.023 65.0742C143.477 72.7344 147.883 78.6875 153.172 84.0898C153.43 84.3516 154.414 84.3008 154.734 84.0234C155.675 83.1707 156.546 82.2446 157.34 81.2539C161.59 76.2344 164.992 70.7812 165.996 64.1172C167.113 56.7266 162.016 49.9609 154.926 49.4531C147.555 48.9258 141.66 54.4609 141.633 61.8828ZM162.727 82.4102L162.211 82.3789C161.289 83.4297 160.387 84.5 159.441 85.5352C155.144 90.2226 152.687 90.2226 148.406 85.5352C147.004 83.9727 145.695 82.3594 144.344 80.7695C145.723 84.4453 147.293 88 148.891 91.543C151.898 98.207 159.508 99.9141 165.043 95.1601C165.185 95.0173 165.293 94.8448 165.361 94.655C165.429 94.4653 165.453 94.2629 165.434 94.0625C164.562 90.1602 163.633 86.2852 162.719 82.4219L162.727 82.4102Z" fill="#0C2231"/>
<path d="M121.199 98.8789C124.742 101.391 128.137 104.035 131.746 106.301C137.289 109.789 140.168 117.301 133.648 124.695C133.475 124.918 133.259 125.104 133.013 125.243C132.767 125.382 132.496 125.471 132.216 125.504C131.936 125.538 131.652 125.516 131.38 125.44C131.108 125.363 130.854 125.234 130.633 125.059C129.68 124.277 129.461 123.262 130.121 122.188C130.676 121.273 131.367 120.438 131.934 119.531C133.637 116.797 133.348 113.199 130.883 111.27C127.012 108.238 122.922 105.488 118.992 102.676C116.852 105.145 114.879 107.555 112.742 109.832C110.008 112.785 106.961 112.723 104.148 109.789C98.9765 104.414 94.707 98.4609 92.7617 91.1406C92.3164 89.4531 92.0976 87.7031 91.707 85.625C90.4861 85.7697 89.2755 85.9902 88.082 86.2852C85.8164 86.9844 84.0742 88.457 82.707 90.3828C80.3398 93.7266 77.9609 97.0664 75.6054 100.422C74.2254 102.314 73.6331 104.668 73.9531 106.988C74.4882 106.555 74.8437 106.27 75.1953 105.977C80.2539 101.809 85.9336 100.691 92.0351 103.055C98.1367 105.418 101.66 110.105 102.512 116.566C103.383 123.188 101.094 129.117 97.582 134.535C95.4961 137.75 92.9453 140.68 90.4531 143.609C88.6328 145.75 87.3281 146.078 84.3515 145.652C84.2812 149.203 83.914 152.758 84.2304 156.246C84.5234 159.473 88.414 161.008 91.2617 159.32C92.6015 158.539 93.8515 157.578 95.1328 156.688C100.504 152.961 105.859 149.211 111.242 145.5C114.313 143.396 116.974 140.748 119.094 137.688C120.875 135.121 122.691 132.578 124.508 130.035C125.527 128.609 126.707 128.281 127.848 129.066C128.988 129.852 129.102 131.105 128.105 132.527C126.092 135.408 124.061 138.272 122.012 141.121C119.729 144.241 116.923 146.943 113.719 149.105C107.339 153.533 100.967 157.96 94.6054 162.387C91.3554 164.66 87.9414 165.168 84.4257 163.246C80.9687 161.355 79.4961 158.266 79.6523 154.355C79.7968 150.699 79.8711 147.035 80.0781 143.379C80.1158 142.902 80.0522 142.423 79.8912 141.972C79.7303 141.522 79.4758 141.111 79.1445 140.766C74.6406 135.488 71.0937 129.652 69.8593 122.656C69.2461 119.238 69.3242 115.867 70.5664 112.563C70.7425 112.032 70.7342 111.458 70.5429 110.934C68.6875 106.246 69.2617 101.848 72.1406 97.7461C74.4062 94.5078 76.7304 91.3086 78.9882 88.0664C81.9179 83.8633 85.9023 81.5586 91.0234 81.3125C91.8867 81.2695 92.2695 81.0234 92.5273 80.1641C95.125 71.5117 103.605 66.4258 112.059 68.3984C116.236 69.3903 119.885 71.9232 122.276 75.4904C124.666 79.0575 125.621 83.3957 124.949 87.6367C124.42 91.1607 123.321 94.5752 121.695 97.7461C121.527 98.0938 121.391 98.4375 121.199 98.8789ZM96.2265 84.7656C96.3437 85.8281 96.3945 86.9063 96.5898 87.9531C98.0039 95.668 102.449 101.625 107.707 107.125C108.426 107.871 109.027 107.516 109.539 106.879C111.762 104.109 114.164 101.461 116.137 98.5195C118.91 94.3867 120.734 89.8203 120.711 84.7148C120.68 77.918 115.133 72.3555 108.457 72.3828C101.699 72.418 96.3242 77.8906 96.2265 84.7656ZM73.9023 118.555C73.8826 118.945 73.8826 119.336 73.9023 119.727C74.7851 128.414 79.5625 135.008 85.3711 141.051C85.9492 141.652 86.4882 141.477 86.9961 140.93C87.7773 140.066 88.6211 139.242 89.375 138.348C93.8711 133.027 97.5078 127.301 98.2773 120.133C99.0156 113.242 93.8242 106.73 87.164 106.332C79.8086 105.898 73.9296 111.305 73.9023 118.562V118.555Z" fill="#0C2231"/>
<path d="M54.168 51.5977C52.9543 51.5948 51.753 51.353 50.6328 50.8859C49.5126 50.4188 48.4953 49.7357 47.6391 48.8755C45.9099 47.1382 44.9416 44.7852 44.9473 42.334C44.953 39.8828 45.9322 37.5343 47.6695 35.8051C49.4067 34.0758 51.7598 33.1076 54.211 33.1133C56.6621 33.119 59.0107 34.0982 60.7399 35.8354C62.4691 37.5727 63.4374 39.9258 63.4317 42.377C63.426 44.8281 62.4468 47.1767 60.7095 48.9059C58.9722 50.6351 56.6192 51.6034 54.168 51.5977ZM54.2461 47.2031C55.5282 47.2022 56.7582 46.6953 57.6688 45.7928C58.5793 44.8902 59.0971 43.6649 59.1094 42.3828C59.1038 41.7353 58.9705 41.0952 58.7173 40.4992C58.4641 39.9032 58.0958 39.363 57.6336 38.9095C57.1714 38.456 56.6242 38.0981 56.0235 37.8562C55.4228 37.6143 54.7804 37.4933 54.1328 37.5C52.8518 37.5287 51.6337 38.061 50.7424 38.9815C49.8512 39.9021 49.3585 41.1367 49.3711 42.418C49.3757 43.0526 49.5056 43.6802 49.7533 44.2645C50.001 44.8489 50.3617 45.3785 50.8147 45.8231C51.2676 46.2678 51.8039 46.6185 52.3928 46.8553C52.9816 47.0922 53.6115 47.2103 54.2461 47.2031Z" fill="#0C2231"/>
<path d="M144.688 62.1484C144.681 59.6973 145.649 57.344 147.378 55.6064C149.107 53.8687 151.455 52.889 153.906 52.8828C156.357 52.8766 158.711 53.8444 160.448 55.5732C162.186 57.3021 163.166 59.6504 163.172 62.1016C163.178 64.5527 162.21 66.906 160.482 68.6436C158.753 70.3813 156.404 71.361 153.953 71.3672C151.502 71.3734 149.149 70.4056 147.411 68.6768C145.673 66.9479 144.694 64.5996 144.688 62.1484ZM149.078 62.1992C149.082 63.4803 149.592 64.708 150.496 65.6156C151.4 66.5233 152.625 67.0376 153.906 67.0469C155.188 67.0279 156.411 66.5123 157.32 65.6088C158.229 64.7053 158.751 63.4843 158.777 62.2031C158.782 61.5561 158.657 60.9147 158.41 60.3167C158.163 59.7188 157.799 59.1764 157.338 58.7216C156.878 58.2668 156.331 57.9089 155.731 57.6689C155.13 57.4289 154.487 57.3117 153.84 57.3242C153.206 57.3262 152.578 57.4544 151.994 57.7015C151.409 57.9486 150.88 58.3096 150.437 58.7634C149.994 59.2172 149.645 59.7547 149.412 60.3446C149.179 60.9345 149.065 61.565 149.078 62.1992Z" fill="#0C2231"/>
<path d="M108.48 94.4062C106.029 94.4099 103.677 93.4396 101.941 91.7089C100.205 89.9783 99.2282 87.6289 99.2246 85.1777C99.221 82.7266 100.191 80.3743 101.922 78.6385C103.653 76.9027 106.002 75.9255 108.453 75.9219C108.845 75.9164 109.237 75.9426 109.625 76C111.344 76.2578 112.234 77.1719 112.074 78.5C111.914 79.8281 110.879 80.5 109.141 80.3438C106.387 80.0977 103.992 81.9414 103.707 84.5312C103.402 87.2656 105.227 89.6719 107.836 89.9805C108.49 90.0755 109.157 90.0358 109.795 89.8639C110.434 89.6919 111.03 89.3913 111.548 88.9805C112.066 88.5697 112.495 88.0574 112.807 87.475C113.12 86.8926 113.311 86.2524 113.367 85.5938C113.582 83.7617 114.48 82.8242 115.844 83.0156C117.207 83.207 117.922 84.3672 117.73 86.1406C117.485 88.4188 116.403 90.525 114.695 92.0518C112.986 93.5786 110.772 94.4175 108.48 94.4062Z" fill="#0C2231"/>
<path d="M86.1366 109.828C87.3503 109.835 88.5508 110.08 89.6696 110.551C90.7883 111.022 91.8035 111.708 92.657 112.571C93.5105 113.434 94.1856 114.457 94.6439 115.58C95.1022 116.704 95.3347 117.907 95.328 119.121C95.3213 120.335 95.0757 121.535 94.6051 122.654C94.1344 123.773 93.4481 124.788 92.5851 125.641C91.7222 126.495 90.6996 127.17 89.5757 127.628C88.4519 128.087 87.2488 128.319 86.0351 128.313C83.5839 128.299 81.2384 127.312 79.5147 125.57C77.791 123.827 76.8302 121.471 76.8436 119.02C76.8571 116.568 77.8438 114.223 79.5865 112.499C81.3293 110.775 83.6854 109.815 86.1366 109.828ZM90.9921 118.984C90.9822 117.689 90.4584 116.451 89.5357 115.543C88.613 114.634 87.3672 114.129 86.0722 114.139C84.7772 114.149 83.5391 114.672 82.6304 115.595C81.7216 116.518 81.2166 117.764 81.2265 119.059C81.2313 119.7 81.3625 120.334 81.6123 120.924C81.8622 121.515 82.226 122.05 82.6828 122.5C83.1397 122.95 83.6807 123.306 84.275 123.547C84.8693 123.788 85.5052 123.909 86.1464 123.904C86.7876 123.899 87.4216 123.768 88.0121 123.518C88.6027 123.269 89.1382 122.905 89.5882 122.448C90.0381 121.991 90.3937 121.45 90.6346 120.856C90.8755 120.261 90.997 119.626 90.9921 118.984Z" fill="#0C2231"/>
</svg>
