<svg width="200" height="200" viewBox="0 0 200 200" fill="none" xmlns="http://www.w3.org/2000/svg">
<path d="M72.454 101.01C70.9601 99.3598 69.1482 98.0286 67.127 97.0961C65.1058 96.1637 62.9171 95.6492 60.6922 95.5837C55.4427 95.4122 50.1725 95.4122 44.9231 95.5837C35.8899 95.9111 28.5666 103.479 28.3223 112.548C28.2548 115.079 28.3587 117.616 28.2704 120.147C28.234 121.228 28.577 121.873 29.6009 122.179C34.4917 123.645 39.3514 125.23 44.2838 126.535C47.0436 127.268 48.5509 129.461 46.9865 131.389C46.5929 131.824 46.1112 132.17 45.5734 132.404C45.0357 132.638 44.4543 132.754 43.868 132.746C36.7111 131.893 29.9907 129.523 23.6446 126.161C23.2408 125.915 22.897 125.582 22.638 125.186C22.3791 124.79 22.2116 124.342 22.1478 123.874C22.0646 119.269 21.7683 114.601 22.3609 110.064C23.5927 100.646 28.9772 94.222 37.8077 90.7136C38.2235 90.5473 38.6289 90.3654 39.0551 90.1939C28.8421 79.8509 31.8046 66.7116 39.2682 60.0485C43.0792 56.5779 48.0765 54.702 53.2299 54.8074C58.3832 54.9128 63.2996 56.9915 66.9655 60.615C74.2835 67.7667 76.2898 80.2459 66.6848 90.0432C68.7223 91.0827 70.8428 91.9662 72.7503 93.2084C74.6578 94.4506 76.2794 96.0463 78.218 97.6419L83.9352 95.6772C76.9498 89.6638 73.2544 82.2365 73.9613 73.0318C74.481 66.0516 77.5995 60.22 82.8438 55.6046C87.8514 51.0955 94.4291 48.7325 101.161 49.0241C107.894 49.3157 114.242 52.2386 118.841 57.1639C128.675 67.5588 129.236 84.4351 116.118 95.6253L122.043 97.7043C125.095 94.1493 129.095 91.5355 133.576 90.1679C128.639 85.2927 126.201 79.5442 126.986 72.7147C127.567 67.6146 130.102 62.9384 134.06 59.669C137.877 56.3481 142.808 54.5923 147.865 54.7532C152.923 54.9142 157.732 56.9801 161.331 60.537C168.384 67.3249 170.962 80.038 160.962 90.2043C165.065 91.5124 168.759 93.8619 171.684 97.0234C175.704 101.361 177.945 107.051 177.963 112.964C178.004 116.342 177.926 119.721 177.989 123.099C178.047 123.814 177.878 124.528 177.504 125.14C177.13 125.752 176.572 126.23 175.91 126.504C170.011 129.503 163.695 131.597 157.173 132.715C156.856 132.767 156.533 132.808 156.206 132.834C154.127 132.974 152.765 131.977 152.568 130.199C152.37 128.421 153.41 127.117 155.4 126.633C159.039 125.75 162.75 125.012 166.315 123.837C171.793 122.008 171.83 121.873 171.726 116.083C171.668 113.38 171.679 110.542 170.889 108.006C168.706 101.01 163.815 96.4829 156.476 95.8124C150.239 95.2511 143.898 95.5057 137.625 95.8124C133.685 95.9943 130.395 98.0629 127.62 100.932C129.112 102.356 130.603 103.619 131.903 105.048C137.62 111.358 140.177 118.842 140.016 127.33C139.938 131.161 140.016 134.996 140.073 138.827C140.109 140.651 139.444 141.852 137.76 142.683C112.528 155.157 87.3292 155.105 62.1631 142.527C61.1859 142.039 60.0841 140.625 60.0841 139.612C59.9333 134.367 59.9437 129.097 60.2192 123.853C60.6922 114.872 64.6734 107.59 71.5445 101.847C71.8147 101.592 72.085 101.322 72.454 101.01ZM100.063 100.958V101.275C96.8146 101.275 93.5714 101.233 90.3229 101.275C79.06 101.446 68.8522 109.643 66.9811 120.724C66.0975 125.979 66.4614 131.452 66.373 136.836C66.373 137.325 67.0591 138.042 67.5944 138.291C89.1985 148.26 110.822 148.288 132.464 138.375C133.555 137.855 133.815 137.195 133.789 136.109C133.701 132.605 133.675 129.102 133.654 125.599C133.576 114.206 125.957 104.347 114.777 102.055C109.99 101.041 104.969 101.259 100.063 100.932V100.958ZM100.063 55.22C89.2938 55.22 80.1775 64.274 80.1463 75.0328C80.1151 85.7916 89.1691 94.9548 99.8967 94.9912C110.78 95.0328 119.917 85.9424 119.912 75.09C119.902 64.3156 110.822 55.2304 100.053 55.2148L100.063 55.22ZM52.766 89.1596C55.5478 89.1626 58.268 88.3413 60.5833 86.7994C62.8985 85.2575 64.7049 83.064 65.7744 80.4961C66.8439 77.9282 67.1285 75.1009 66.5922 72.3714C66.0559 69.6418 64.7228 67.1324 62.7613 65.16C60.7998 63.1876 58.2978 61.8406 55.5712 61.2893C52.8447 60.7379 50.0159 61.0068 47.4421 62.0621C44.8684 63.1174 42.665 64.9116 41.1103 67.2183C39.5555 69.525 38.7192 72.2407 38.7069 75.0224C38.7027 78.7591 40.1803 82.3451 42.8157 84.9941C45.4511 87.6432 49.0294 89.1393 52.766 89.1544V89.1596ZM147.157 89.1596C149.947 89.1678 152.676 88.3469 154.998 86.8012C157.32 85.2555 159.13 83.0546 160.199 80.4781C161.268 77.9015 161.547 75.0654 161.001 72.3299C160.455 69.5944 159.108 67.0828 157.132 65.114C155.156 63.1452 152.64 61.808 149.902 61.2722C147.165 60.7363 144.33 61.026 141.757 62.1044C139.185 63.1829 136.99 65.0014 135.453 67.3292C133.916 69.6569 133.106 72.3889 133.124 75.1784C133.155 78.8852 134.646 82.4305 137.272 85.0464C139.899 87.6622 143.45 89.1381 147.157 89.1544V89.1596Z" fill="#0C2231"/>
</svg>
