<svg width="35" height="35" viewBox="0 0 35 35" fill="none" xmlns="http://www.w3.org/2000/svg">
<path d="M18.269 4.375C18.7756 4.44336 19.2855 4.49258 19.7887 4.58008C21.8601 4.93191 23.8128 5.78889 25.4741 7.0752C25.7619 7.29463 25.8269 7.57832 25.6498 7.82715C25.4728 8.07598 25.1528 8.11357 24.8609 7.89551C23.5376 6.87695 22.016 6.14628 20.3937 5.75039C13.9398 4.18359 7.3999 8.0418 5.80098 14.486C4.66416 19.0661 5.87686 23.061 9.26953 26.3696C9.32354 26.4223 9.38369 26.4681 9.42197 26.5009C10.7762 22.2817 13.5584 19.9336 18.0845 20.1065C21.6289 20.2433 24.6894 22.8601 25.5268 26.5323C25.5951 26.4797 25.6539 26.4394 25.7065 26.3908C28.0041 24.2354 29.3036 21.5934 29.5559 18.4495C29.7609 15.9154 29.2031 13.5488 27.9248 11.3518C27.8988 11.3073 27.8735 11.2629 27.851 11.215C27.7143 10.9416 27.7826 10.6682 28.0226 10.5205C28.08 10.4821 28.1449 10.4563 28.213 10.4449C28.2812 10.4334 28.351 10.4367 28.4178 10.4543C28.4846 10.472 28.5469 10.5037 28.6005 10.5472C28.6541 10.5908 28.6978 10.6453 28.7287 10.7071C29.0855 11.3955 29.4526 12.0818 29.7473 12.7976C30.2201 13.9718 30.5019 15.2141 30.5819 16.4773C30.5911 16.5458 30.6055 16.6134 30.625 16.6797V18.3203C30.6038 18.4885 30.5806 18.6566 30.5621 18.8248C30.2606 21.5872 29.2209 24.0331 27.3882 26.1235C25.3524 28.4478 22.8081 29.8833 19.7606 30.4261C19.2821 30.5108 18.8036 30.5628 18.3203 30.625H16.6797C16.6151 30.6066 16.5493 30.5924 16.4828 30.5826C14.2516 30.409 12.1871 29.7288 10.3264 28.4854C7.18867 26.3867 5.26367 23.4801 4.57529 19.762C4.48779 19.2855 4.44336 18.7988 4.375 18.3203V16.6797C4.4584 16.0979 4.52129 15.5128 4.6293 14.9358C5.60957 9.70088 9.96064 5.44346 15.2127 4.58008C15.6994 4.49941 16.1902 4.44336 16.6797 4.375H18.269ZM17.4535 29.5996C19.8871 29.5825 22.0944 28.9468 24.1021 27.6397C24.6449 27.2863 24.6449 27.287 24.4945 26.6492C23.4938 22.4109 19.1071 20.0184 15.0247 21.5318C12.4852 22.4738 10.9819 24.3441 10.4296 26.9903C10.3865 27.1954 10.4296 27.3246 10.6135 27.4531C12.6231 28.8457 15.0086 29.5943 17.4535 29.5996V29.5996Z" fill="white"/>
<path d="M17.511 9.80957C18.4236 9.81174 19.315 10.0845 20.0726 10.5933C20.8302 11.1021 21.42 11.8242 21.7672 12.6681C22.1144 13.5121 22.2036 14.4401 22.0235 15.3347C21.8433 16.2294 21.4019 17.0505 20.755 17.6943C20.1082 18.3381 19.285 18.7756 18.3895 18.9515C17.494 19.1275 16.5664 19.0339 15.7241 18.6826C14.8818 18.3314 14.1625 17.7383 13.6573 16.9783C13.1521 16.2183 12.8836 15.3255 12.8858 14.4129C12.8906 13.1897 13.3802 12.0184 14.2472 11.1555C15.1141 10.2927 16.2878 9.80866 17.511 9.80957V9.80957ZM17.4966 18.0127C18.2066 18.0134 18.9008 17.8035 19.4914 17.4095C20.082 17.0156 20.5426 16.4553 20.8147 15.7996C21.0869 15.1439 21.1584 14.4222 21.0203 13.7258C20.8822 13.0294 20.5407 12.3896 20.0389 11.8873C19.5372 11.3851 18.8977 11.0429 18.2014 10.9042C17.5052 10.7654 16.7834 10.8363 16.1274 11.1078C15.4714 11.3794 14.9107 11.8393 14.5162 12.4296C14.1217 13.0199 13.9111 13.7139 13.9111 14.4238C13.9133 15.375 14.2921 16.2866 14.9647 16.9591C15.6373 17.6317 16.5489 18.0105 17.5 18.0127H17.4966Z" fill="white"/>
<path d="M27.4442 9.09179C27.4449 9.19333 27.4153 9.29277 27.3592 9.37739C27.303 9.46201 27.2229 9.52797 27.1291 9.56685C27.0353 9.60573 26.9321 9.61576 26.8325 9.59566C26.733 9.57555 26.6417 9.52623 26.5703 9.45399C26.499 9.38175 26.4508 9.28987 26.4319 9.1901C26.413 9.09033 26.4243 8.98719 26.4643 8.89386C26.5043 8.80054 26.5713 8.72126 26.6566 8.66617C26.7419 8.61107 26.8416 8.58266 26.9432 8.58456C27.0759 8.58858 27.2019 8.6435 27.2952 8.73793C27.3885 8.83236 27.4418 8.95907 27.4442 9.09179V9.09179Z" fill="white"/>
</svg>
