<svg width="17" height="18" viewBox="0 0 17 18" fill="none" xmlns="http://www.w3.org/2000/svg">
<path d="M1.75833 15.4972H15.2388V15.2872C15.2388 13.1512 15.2388 11.0152 15.2388 8.87913C15.2388 8.39196 15.571 8.01535 16.0311 7.97142C16.1531 7.95943 16.2764 7.97282 16.3929 8.01072C16.5094 8.04863 16.6166 8.11021 16.7076 8.19152C16.7986 8.27283 16.8713 8.37206 16.9212 8.48283C16.9711 8.5936 16.997 8.71346 16.9972 8.83471C17.0035 9.48653 16.9972 10.1383 16.9972 10.7902C16.9972 12.4192 16.9972 14.0483 16.9972 15.6773C16.9972 16.6328 16.3852 17.2383 15.4205 17.2383H1.57615C0.611019 17.2388 0 16.6333 0 15.6778C0 13.4088 0 11.1396 0 8.86996C0 8.24856 0.562665 7.82802 1.14291 8.00715C1.51802 8.12302 1.75638 8.45617 1.75686 8.87623C1.75686 10.1615 1.75686 11.4468 1.75686 12.7321V15.4948L1.75833 15.4972Z" fill="#0C2231"/>
<path d="M7.69054 10.4329V10.2098C7.69054 7.1887 7.69054 4.16779 7.69054 1.14703C7.69054 0.618941 8.04194 0.2331 8.51078 0.238334C8.71574 0.241492 8.91195 0.326713 9.05983 0.47681C9.20771 0.626906 9.29626 0.830712 9.30763 1.04712C9.31168 1.11801 9.30988 1.18985 9.30988 1.26122V10.4353C9.37287 10.3734 9.41516 10.3339 9.45476 10.2926C9.96004 9.75923 10.4613 9.22067 10.9715 8.6921C11.4242 8.223 12.154 8.40998 12.3267 9.0375C12.4167 9.36673 12.3411 9.66075 12.1108 9.90529C11.7508 10.2891 11.3892 10.6721 11.026 11.0542C10.402 11.714 9.77767 12.3746 9.15285 13.0363C8.7245 13.4887 8.27546 13.4873 7.84532 13.0329C6.86684 11.9989 5.88867 10.9645 4.9108 9.92955C4.57424 9.57273 4.54545 9.07556 4.83431 8.72635C5.14927 8.34575 5.6757 8.32624 6.03115 8.69591C6.54049 9.22543 7.04217 9.76256 7.54791 10.2964C7.5857 10.3339 7.62664 10.372 7.69054 10.4329Z" fill="#0C2231"/>
</svg>
