<svg width="200" height="200" viewBox="0 0 200 200" fill="none" xmlns="http://www.w3.org/2000/svg">
<path d="M142.211 25C145.043 26.0938 146.242 28.168 146.027 31.1719C145.93 32.582 146.027 34.0039 146.027 35.418C146.027 39.4883 144.832 40.957 140.82 41.7539V44.3867H142.383C147.949 44.3867 153.516 44.3867 159.082 44.3867C163.711 44.3867 166.875 47.0586 166.992 51.6211C167.43 68.6719 162.824 83.9453 150.437 96.2344C143.699 102.918 135.449 107.016 126.383 109.586C125.641 109.794 124.94 110.13 124.312 110.578C120.998 112.998 117.363 114.944 113.512 116.359C112.935 116.572 112.435 116.953 112.078 117.453C108.133 123.605 107.234 130.211 109.293 137.215C109.703 138.617 110.227 139.984 110.641 141.387C110.871 142.168 111.281 142.461 112.113 142.422C113.527 142.355 114.945 142.375 116.359 142.422C118.778 142.459 121.087 143.432 122.803 145.136C124.518 146.841 125.506 149.145 125.559 151.563C125.617 153.156 125.559 154.754 125.559 156.504C128.141 156.504 130.52 156.504 132.898 156.504C136.125 156.504 137.672 158.035 137.703 161.242C137.73 164.27 137.738 167.297 137.703 170.324C137.676 173.438 136.078 175 132.973 175C111.001 175 89.0286 175 67.0547 175C63.9609 175 62.3672 173.438 62.3359 170.313C62.3047 167.188 62.2969 164.16 62.3359 161.082C62.375 158.004 63.9648 156.531 67.0234 156.512C69.4492 156.492 71.8789 156.512 74.4765 156.512C74.4765 155.043 74.4765 153.734 74.4765 152.43C74.5234 146.355 78.4141 142.453 84.457 142.414C85.6797 142.414 86.9023 142.461 88.1172 142.383C88.3354 142.369 88.548 142.307 88.7397 142.202C88.9314 142.096 89.0976 141.95 89.2265 141.773C91.875 135.313 92.9375 128.746 90.3359 121.984C90.1601 121.531 89.9453 121.09 89.7695 120.637C88.7578 118.098 87.1914 116.391 84.418 115.387C81.4844 114.32 78.875 112.367 76.1094 110.836C75.1669 110.253 74.1636 109.775 73.1172 109.41C60.793 105.859 50.5351 99.3203 43.1758 88.6719C37.1523 79.9531 34.0898 70.1758 33.2344 59.6758C33.0086 57.099 32.9407 54.5108 33.0312 51.9258C33.2265 47.1914 36.2461 44.418 40.9805 44.4063C46.5 44.4063 52.0156 44.4063 57.5351 44.4063H59.2148V41.7812L58.0234 41.5234C56.9016 41.3178 55.888 40.7234 55.1608 39.8447C54.4336 38.9661 54.0392 37.8593 54.0469 36.7188C54 34.8633 54.1328 33.0039 54.0156 31.1523C53.8203 28.1445 55 26.0742 57.8359 24.9844H75.707C76.7734 25.6602 77.5469 26.5469 77.082 27.8789C76.6172 29.2109 75.4883 29.3984 74.2226 29.3906C69.5351 29.3594 64.8476 29.4375 60.1601 29.3438C58.7031 29.3164 58.289 29.793 58.3984 31.1719C58.5078 32.5508 58.4219 33.9063 58.4219 35.2695C58.4219 37.2227 58.4219 37.2227 60.4531 37.2227H139.52C139.665 37.2129 139.811 37.2129 139.957 37.2227C141.199 37.3945 141.742 36.957 141.641 35.6133C141.525 34.1533 141.525 32.6865 141.641 31.2266C141.762 29.7656 141.32 29.3203 139.797 29.3281C121.937 29.3828 104.074 29.3594 86.2148 29.3711C84.9844 29.3711 83.8398 29.2891 83.3008 27.9453C82.7617 26.6016 83.5937 25.7813 84.4961 25H142.211ZM136.352 41.7617H63.6953V42.8867C63.6953 54.6055 63.668 66.3242 63.7187 78.043C63.7473 80.0919 63.9328 82.1356 64.2734 84.1563C67.5195 104.398 88.1641 118.109 108.133 113.316C124.844 109.309 136.258 94.9375 136.324 77.7695C136.363 67.2773 136.324 56.7812 136.324 46.2852L136.352 41.7617ZM132.746 102.621C132.912 102.584 133.076 102.534 133.234 102.473C139.945 99.5117 145.805 95.3633 150.504 89.7148C159.559 78.832 162.922 66.0625 162.652 52.1523C162.605 49.8281 161.449 48.7969 159.137 48.7891C153.426 48.7734 147.715 48.7734 142.004 48.7891C141.613 48.7891 141.254 48.8477 140.867 48.8789V54.6445C144.687 54.6445 148.395 54.6172 152.102 54.6445C154.988 54.6719 156.812 56.5625 156.555 59.418C156.348 61.6953 155.922 63.957 155.488 66.2031C155.168 67.875 154.082 68.6406 152.754 68.3281C151.496 68.0312 150.949 66.9141 151.23 65.3203C151.594 63.2813 151.922 61.2344 152.273 59.1406H140.441V85.5469C141.078 84.8594 141.949 84.125 142.57 83.2031C144.379 80.5547 146.117 77.8516 147.824 75.1367C148.422 74.1836 149.187 73.3711 150.273 73.7734C151.067 74.154 151.695 74.809 152.043 75.6172C152.25 76.0937 151.848 76.9258 151.559 77.5195C148.6 83.6055 144.153 88.8457 138.629 92.7539C138.179 93.0328 137.794 93.4043 137.5 93.8437C135.891 96.7578 134.332 99.6719 132.738 102.621H132.746ZM133.203 170.563V161H66.832V170.563H133.203ZM67.5039 102.984C65.6953 99.6406 64.1172 96.6914 62.5 93.7656C62.2544 93.4065 61.9347 93.1042 61.5625 92.8789C50.1055 84.6758 44.9336 73.082 43.4922 59.4883C43.1836 56.5508 45.0547 54.668 48.0273 54.6367C50.9062 54.6094 53.7851 54.6367 56.668 54.6367H59.2031V48.7773H41.4297C38.4492 48.7773 37.2773 49.7266 37.4101 52.6836C37.6133 57.1055 37.7539 61.5859 38.582 65.9219C41.1015 79.5 47.6914 90.6289 59.3711 98.3789C61.875 100.039 64.6211 101.367 67.5156 102.996L67.5039 102.984ZM78.9219 156.398H121.195C121.195 155.039 121.195 153.781 121.195 152.52C121.172 148.715 119.242 146.797 115.395 146.793C108.624 146.793 101.84 146.793 95.043 146.793C91.3359 146.793 87.6211 146.762 83.9141 146.793C81.3594 146.828 79.2265 148.551 78.9726 150.914C78.7851 152.734 78.9336 154.523 78.9336 156.41L78.9219 156.398ZM93.5742 118.402C97.1914 126.273 96.9414 134.227 93.6719 142.293H106.359C103.043 134.176 102.844 126.187 106.43 118.402H93.5742ZM59.5312 85.4648V59.1563H47.8476C48.9961 69.3516 52.3633 78.3828 59.543 85.4766L59.5312 85.4648Z" fill="#0C2231"/>
<path d="M78.9375 83.0273L83.7266 79.6602V54.7422H86.461V78.1445C87.7383 77.2539 89.9766 75.7305 89.9766 75.7305L90.8789 75.1523C90.8555 72.3516 90.8789 77.2148 90.8789 74.4141C90.8789 67.6172 90.8789 61.6836 90.8789 54.793H93.6133V73.2383C95.4063 72.1836 96.6836 71.3516 98.4258 70.3398V49.8945H81.125C80.7891 49.8945 80.457 49.8945 80.125 49.8945C79.7152 49.918 79.3044 49.918 78.8945 49.8945V51.8086C78.8945 64.8711 78.8945 68.5039 78.8945 81.5586C78.8828 82.0312 78.9063 82.4531 78.9375 83.0273Z" fill="#0C2231"/>
<path d="M116.527 54.6875H106.129C106.129 64.4219 106.129 58.1445 106.129 68.0234L116.383 74.4258C116.383 74.4258 116.383 71.1836 116.383 68.8633C115.656 68.7773 114.785 68.8125 113.945 68.793C113.105 68.7734 112.234 68.793 111.316 68.793V64.082H121.203C121.203 68.5312 121.203 78.3594 121.203 82.9844L117.926 80.8203L112.539 77.3437L104.937 72.4414L101.715 70.207C101.715 56.0977 101.734 64.0195 101.734 49.8945H121.176V61.0117H116.527V54.6875Z" fill="#0C2231"/>
<path d="M86.8789 86.1992H78.8789C85.8437 81.6719 92.8789 77.0312 100.012 72.3984C107.082 76.9922 114.16 81.625 121.191 86.1992H113.145C105.996 81.5625 107.031 82.2461 100 77.6797C93.0117 82.207 94.0039 81.582 86.8789 86.1992Z" fill="#0C2231"/>
<path d="M108.285 83.8516H111.18H111.777L105.254 79.625C97.0977 79.5664 102.402 79.5859 94.4336 79.5312L87.9766 83.6836C96.1211 83.7422 100.305 83.7891 108.285 83.8516Z" fill="#0C2231"/>
<path d="M79.7383 92.0469H79.6172V91.1563L78.8359 92.0469H78.8125V90.875H78.9258V91.7969L79.707 90.8906H79.7305L79.7383 92.0469Z" fill="#0C2231"/>
<path d="M80.5742 90.8828H80.6875V91.3711H81.2773V90.8828H81.3945V92.0547H81.2773V91.4844H80.6875V92.0469H80.5742V90.8828Z" fill="#0C2231"/>
<path d="M82.1211 91.0156V90.9023H82.7578V91.0156H82.4961V92.0664H82.3789V91.0156H82.1211Z" fill="#0C2231"/>
<path d="M83.4805 90.8828H84.1484V91.0156H83.5938V91.3828H84.1406V91.4961H83.5938V91.9531H84.1406V92.0664H83.4766L83.4805 90.8828Z" fill="#0C2231"/>
<path d="M85.8438 92.0469H85.7148L85.3242 91.1484L84.9336 92.0469H84.8086L85.3164 90.875H85.3398L85.8438 92.0469Z" fill="#0C2231"/>
<path d="M87.5351 92.0469H87.4102L87.0195 91.1484L86.6289 92.0469H86.5L87.0078 90.875H87.0352L87.5351 92.0469Z" fill="#0C2231"/>
<path d="M88.2812 90.8828H88.9492V91.0156H88.3984V91.3828H88.9492V91.4961H88.4023V91.9531H88.9492V92.0664H88.2812V90.8828Z" fill="#0C2231"/>
<path d="M89.7109 90.8828H89.8281V91.3242L90.293 90.8828H90.4492L89.8906 91.4062L90.4922 92.0469H90.3437L89.8359 91.5039V92.0469H89.7148L89.7109 90.8828Z" fill="#0C2231"/>
<path d="M91.1055 91.0156V90.9023H91.7422V91.0156H91.4805V92.0664H91.3633V91.0156H91.1055Z" fill="#0C2231"/>
<path d="M92.375 90.8867H92.5078L92.8594 91.668L93.1797 90.8867H93.3086L92.8672 91.9336C92.8518 91.9785 92.822 92.017 92.7824 92.0431C92.7428 92.0692 92.6957 92.0816 92.6484 92.0781C92.6068 92.0802 92.5652 92.0722 92.5273 92.0547C92.4711 92.0234 92.4209 91.9824 92.3789 91.9336L92.4648 91.8633C92.4992 91.9011 92.5387 91.9339 92.582 91.9609C92.6014 91.9646 92.6213 91.9646 92.6406 91.9609C92.6697 91.9616 92.6983 91.9534 92.7227 91.9375C92.7548 91.9029 92.7789 91.8615 92.793 91.8164L92.375 90.8867Z" fill="#0C2231"/>
<path d="M94.5312 90.8828L95.0742 92.0547H94.9492L94.7656 91.6641H94.2656L94.082 92.0547H93.9531L94.5039 90.8828H94.5312ZM94.5312 91.1289L94.3359 91.5508H94.7266L94.5312 91.1289Z" fill="#0C2231"/>
<path d="M96.7578 92.0469H96.6328L96.2422 91.1484L95.8516 92.0469H95.7266L96.2305 90.875H96.2578L96.7578 92.0469Z" fill="#0C2231"/>
<path d="M97.5078 90.8828H97.625V91.3828H97.707C97.8169 91.3788 97.9269 91.3866 98.0352 91.4062C98.0672 91.4117 98.0979 91.4235 98.1254 91.441C98.1529 91.4584 98.1767 91.4811 98.1953 91.5078C98.2387 91.5664 98.2607 91.6381 98.2578 91.7109C98.2607 91.7832 98.2401 91.8544 98.1992 91.9141C98.1637 91.9664 98.1113 92.005 98.0508 92.0234C97.9492 92.043 97.8456 92.0509 97.7422 92.0469H97.5117L97.5078 90.8828ZM97.625 91.9336H97.7461C97.8316 91.9454 97.9184 91.9454 98.0039 91.9336C98.0433 91.9237 98.0779 91.9002 98.1016 91.8672C98.1249 91.8268 98.137 91.781 98.1367 91.7344C98.1392 91.6821 98.1226 91.6307 98.0898 91.5898C98.0618 91.5542 98.0214 91.5305 97.9766 91.5234C97.892 91.5175 97.8072 91.5175 97.7227 91.5234H97.625V91.9336Z" fill="#0C2231"/>
<path d="M99.043 90.8828H99.1602V91.3711H99.75V90.8828H99.8633V92.0547H99.75V91.4844H99.1602V92.0469H99.043V90.8828Z" fill="#0C2231"/>
<path d="M101.258 90.8555C101.34 90.8526 101.421 90.8667 101.497 90.897C101.573 90.9272 101.642 90.973 101.699 91.0313C101.785 91.1163 101.844 91.225 101.868 91.3435C101.892 91.4621 101.881 91.5851 101.834 91.697C101.788 91.8088 101.71 91.9044 101.609 91.9716C101.509 92.0388 101.391 92.0745 101.27 92.0742C101.188 92.0779 101.106 92.0641 101.03 92.0338C100.954 92.0035 100.885 91.9573 100.828 91.8984C100.77 91.8441 100.724 91.7781 100.693 91.7047C100.662 91.6313 100.647 91.5523 100.648 91.4727C100.648 91.3631 100.676 91.2553 100.73 91.1602C100.782 91.0668 100.858 90.9886 100.949 90.9336C101.043 90.8792 101.15 90.8521 101.258 90.8555ZM101.258 90.9688C101.171 90.9688 101.087 90.9916 101.012 91.0348C100.937 91.078 100.875 91.1401 100.832 91.2148C100.791 91.2898 100.769 91.3741 100.77 91.4596C100.77 91.5452 100.792 91.6292 100.834 91.7039C100.876 91.7785 100.936 91.8413 101.009 91.8863C101.082 91.9312 101.165 91.9569 101.25 91.9609C101.338 91.9645 101.424 91.9428 101.5 91.8984C101.576 91.8575 101.639 91.795 101.68 91.7188C101.725 91.6418 101.748 91.554 101.746 91.4648C101.747 91.3779 101.724 91.2923 101.681 91.2168C101.638 91.1413 101.575 91.0787 101.5 91.0352C101.427 90.992 101.343 90.969 101.258 90.9688Z" fill="#0C2231"/>
<path d="M103.582 92.0469H103.461V91.1563L102.68 92.0469H102.652V90.875H102.77V91.7969L103.551 90.8906H103.574L103.582 92.0469ZM102.848 90.625H102.945C102.964 90.6519 102.99 90.6734 103.02 90.6875C103.054 90.6934 103.09 90.6934 103.125 90.6875C103.158 90.6952 103.193 90.6952 103.227 90.6875C103.256 90.6734 103.282 90.6519 103.301 90.625H103.402C103.388 90.674 103.356 90.7158 103.313 90.7422C103.257 90.7772 103.191 90.7936 103.125 90.7891C103.058 90.7926 102.992 90.7777 102.934 90.7461C102.89 90.7177 102.858 90.6747 102.844 90.625H102.848Z" fill="#0C2231"/>
<path d="M106.332 92.0469H106.211V91.1563L105.469 92.0469H105.441V90.875H105.559V91.7969L106.34 90.8906L106.332 92.0469Z" fill="#0C2231"/>
<path d="M107.289 92.0469H107.176V90.875H107.762V91.0156H107.289V92.0469Z" fill="#0C2231"/>
<path d="M108.477 90.8828H108.711C108.801 90.8796 108.892 90.8861 108.98 90.9023C109.044 90.9169 109.1 90.9528 109.141 91.0039C109.185 91.0576 109.207 91.1259 109.203 91.1953C109.206 91.2645 109.184 91.3325 109.141 91.3867C109.097 91.4377 109.038 91.4733 108.973 91.4883C108.875 91.496 108.777 91.496 108.68 91.4883H108.594V92.0273H108.48L108.477 90.8828ZM108.594 90.9961V91.3867H108.789C108.848 91.3869 108.908 91.379 108.965 91.3633C109.001 91.3503 109.031 91.3255 109.051 91.293C109.072 91.2611 109.083 91.2237 109.083 91.1855C109.083 91.1474 109.072 91.11 109.051 91.0781C109.035 91.0513 109.012 91.0296 108.984 91.0156C108.93 90.9995 108.873 90.9929 108.816 90.9961H108.594Z" fill="#0C2231"/>
<path d="M109.992 90.8828H110.105V91.3828H110.191C110.301 91.3791 110.411 91.3869 110.52 91.4062C110.584 91.4181 110.641 91.4545 110.68 91.5078C110.722 91.5668 110.743 91.6385 110.738 91.7109C110.743 91.7834 110.722 91.8552 110.68 91.9141C110.645 91.9673 110.592 92.0062 110.531 92.0234C110.431 92.0429 110.329 92.0507 110.227 92.0469H109.992V90.8828ZM110.105 91.9336H110.23C110.315 91.9454 110.4 91.9454 110.484 91.9336C110.524 91.9237 110.558 91.9002 110.582 91.8672C110.608 91.8262 110.621 91.7788 110.621 91.7305C110.621 91.6821 110.608 91.6347 110.582 91.5937C110.552 91.5587 110.51 91.5352 110.465 91.5273C110.38 91.5195 110.295 91.5195 110.211 91.5273H110.113L110.105 91.9336ZM110.887 90.8828H111.004V92.0547H110.887V90.8828Z" fill="#0C2231"/>
<path d="M112.781 92.0469L112.945 90.875L113.418 91.8281L113.887 90.875H113.906L114.074 92.0469H113.961L113.844 91.2148L113.434 92.0469H113.402L112.984 91.207L112.871 92.0469H112.781Z" fill="#0C2231"/>
<path d="M115.352 90.8828L115.895 92.0547H115.77L115.586 91.6641H115.082L114.902 92.0547H114.773L115.324 90.8828H115.352ZM115.352 91.1289L115.152 91.5508H115.543L115.352 91.1289Z" fill="#0C2231"/>
<path d="M117.133 90.8828H117.25V91.0156H117.34C117.47 91.0012 117.6 91.0376 117.703 91.1172C117.765 91.1812 117.799 91.2666 117.799 91.3555C117.799 91.4443 117.765 91.5297 117.703 91.5937C117.657 91.6339 117.603 91.6637 117.544 91.6812C117.486 91.6987 117.424 91.7035 117.363 91.6953H117.238V92.0312H117.121V91.6953H116.996C116.922 91.6992 116.849 91.6912 116.777 91.6719C116.719 91.6518 116.668 91.6135 116.633 91.5625C116.591 91.5044 116.569 91.4346 116.57 91.3633C116.57 91.3176 116.579 91.2724 116.597 91.2301C116.614 91.1879 116.64 91.1495 116.672 91.1172C116.775 91.0376 116.905 91.0012 117.035 91.0156H117.125L117.133 90.8828ZM117.133 91.1445H117.004C116.924 91.1404 116.845 91.1609 116.777 91.2031C116.751 91.2239 116.73 91.2507 116.715 91.2812C116.701 91.3118 116.694 91.3452 116.695 91.3789C116.695 91.439 116.719 91.4966 116.762 91.5391C116.787 91.5626 116.818 91.5804 116.851 91.5911C116.884 91.6019 116.919 91.6055 116.953 91.6016H117.133V91.1445ZM117.25 91.1445V91.6016H117.434C117.502 91.6056 117.569 91.5832 117.621 91.5391C117.664 91.4966 117.687 91.439 117.688 91.3789C117.688 91.3463 117.681 91.314 117.668 91.2843C117.654 91.2546 117.634 91.2282 117.609 91.207C117.543 91.1593 117.461 91.1372 117.379 91.1445H117.25Z" fill="#0C2231"/>
<path d="M119.508 92.0469H119.387V91.1563L118.605 92.0469H118.578V90.875H118.691V91.7969L119.473 90.8906H119.496L119.508 92.0469Z" fill="#0C2231"/>
<path d="M121.008 92.0469H120.891V91.5078H120.824L120.406 92.0469H120.258L120.676 91.5078C120.598 91.5108 120.521 91.4975 120.449 91.4688C120.396 91.4471 120.35 91.4087 120.32 91.3594C120.289 91.3038 120.274 91.2405 120.278 91.1768C120.281 91.1132 120.303 91.0519 120.34 91C120.383 90.949 120.442 90.9134 120.508 90.8984C120.595 90.8907 120.682 90.8907 120.77 90.8984H121.004L121.008 92.0469ZM120.703 91.0156C120.645 91.0142 120.587 91.0208 120.531 91.0352C120.498 91.0508 120.47 91.0751 120.449 91.1055C120.429 91.1372 120.419 91.1736 120.418 91.2109C120.416 91.2498 120.427 91.2882 120.449 91.3203C120.469 91.3528 120.499 91.3776 120.535 91.3906C120.592 91.4098 120.651 91.4178 120.711 91.4141H120.91V91.0234L120.703 91.0156Z" fill="#0C2231"/>
<path d="M80.6445 87.2695L82.3711 90.2148H81.9805L81.3945 89.2422H79.8047L79.2148 90.2344H78.8242L80.5781 87.2891L80.6445 87.2695ZM80.5977 87.8945L79.9688 88.957H81.25L80.5977 87.8945Z" fill="#0C2231"/>
<path d="M86.8907 87.8086L86.5977 87.9883C86.435 87.8166 86.2362 87.6832 86.0157 87.5977C85.7784 87.5088 85.5269 87.4638 85.2735 87.4648C84.9899 87.4648 84.7093 87.5234 84.4493 87.6367C84.217 87.7346 84.0148 87.8923 83.8633 88.0937C83.7246 88.2783 83.6504 88.5035 83.6524 88.7344C83.6528 88.9109 83.6952 89.0847 83.776 89.2416C83.8568 89.3985 83.9738 89.5339 84.1173 89.6367C84.4872 89.8907 84.9304 90.016 85.3786 89.9934C85.8268 89.9708 86.2551 89.8016 86.5977 89.5117L86.8946 89.6875C86.6987 89.882 86.4628 90.0313 86.2032 90.125C85.9061 90.2302 85.5926 90.2818 85.2774 90.2773C84.7185 90.3086 84.169 90.124 83.7423 89.7617C83.5933 89.6305 83.4743 89.4687 83.3934 89.2874C83.3125 89.1061 83.2716 88.9095 83.2735 88.7109C83.273 88.4961 83.3246 88.2843 83.424 88.0938C83.5233 87.9033 83.6674 87.7398 83.8438 87.6172C84.255 87.3121 84.758 87.1564 85.2696 87.1758C85.5896 87.1712 85.9077 87.2268 86.2071 87.3398C86.4688 87.4399 86.7031 87.6005 86.8907 87.8086Z" fill="#0C2231"/>
<path d="M91.5742 87.8086L91.2773 87.9883C91.1165 87.8162 90.9189 87.6826 90.6992 87.5977C90.4605 87.5089 90.2077 87.4639 89.9531 87.4648C89.6707 87.4653 89.3915 87.5238 89.1328 87.6367C88.9005 87.7346 88.6983 87.8923 88.5468 88.0938C88.4098 88.2792 88.3359 88.5038 88.3359 88.7344C88.3363 88.9109 88.3787 89.0847 88.4595 89.2416C88.5403 89.3985 88.6573 89.5339 88.8007 89.6367C89.169 89.8913 89.6111 90.0171 90.0583 89.9945C90.5055 89.9719 90.9326 89.8022 91.2734 89.5117L91.5703 89.6875C91.3744 89.882 91.1384 90.0313 90.8789 90.125C90.5817 90.2302 90.2683 90.2818 89.9531 90.2773C89.3953 90.3092 88.8467 90.1245 88.4218 89.7617C88.2717 89.6312 88.1517 89.4696 88.0701 89.2882C87.9885 89.1068 87.9472 88.9099 87.9492 88.7109C87.9503 88.4964 88.0026 88.2852 88.1018 88.095C88.201 87.9047 88.3442 87.7409 88.5195 87.6172C88.9323 87.3124 89.4364 87.1568 89.9492 87.1758C90.2679 87.1711 90.5847 87.2268 90.8828 87.3398C91.1468 87.4397 91.3836 87.6003 91.5742 87.8086Z" fill="#0C2231"/>
<path d="M94.5742 87.1875C95.0799 87.1675 95.5769 87.3235 95.9805 87.6289C96.126 87.7313 96.2498 87.8614 96.3447 88.0119C96.4397 88.1624 96.5039 88.3301 96.5337 88.5055C96.5634 88.6809 96.5582 88.8605 96.5182 89.0339C96.4783 89.2072 96.4044 89.371 96.3008 89.5156C96.2144 89.641 96.1059 89.7496 95.9805 89.8359C95.5886 90.1447 95.1002 90.3052 94.6016 90.2891C94.1013 90.3042 93.6112 90.1454 93.2148 89.8398C93.0404 89.7162 92.8977 89.553 92.7985 89.3636C92.6994 89.1741 92.6466 88.9638 92.6445 88.75C92.6473 88.4685 92.7389 88.1951 92.9062 87.9687C93.0857 87.7195 93.3284 87.5226 93.6094 87.3984C93.9118 87.2588 94.2411 87.1868 94.5742 87.1875ZM94.5742 87.4726C94.3044 87.4722 94.0377 87.5309 93.793 87.6445C93.5641 87.7446 93.366 87.9037 93.2188 88.1055C93.0816 88.2921 93.0089 88.5184 93.0117 88.75C93.0127 88.9228 93.0547 89.0929 93.1341 89.2463C93.2136 89.3998 93.3283 89.5322 93.4688 89.6328C93.7823 89.8788 94.172 90.0073 94.5703 89.9961C94.8398 89.9974 95.1064 89.9401 95.3516 89.8281C95.5806 89.732 95.7791 89.5754 95.9258 89.375C96.0589 89.1905 96.1325 88.9697 96.1367 88.7422C96.1381 88.5132 96.0655 88.2898 95.9297 88.1055C95.7797 87.9057 95.5805 87.7483 95.3516 87.6484C95.1124 87.5384 94.8531 87.4786 94.5898 87.4726H94.5742Z" fill="#0C2231"/>
<path d="M100.527 90.2344H97.793V87.2891H98.1641V89.9648H99.8789V87.2891H100.25V89.9648H100.883V90.6758H100.535L100.527 90.2344Z" fill="#0C2231"/>
<path d="M104.844 90.2344H104.453V87.9687L102.012 90.2344H101.953V87.2891H102.324V89.5898L104.781 87.2891H104.863L104.844 90.2344Z" fill="#0C2231"/>
<path d="M107.754 87.2695L109.48 90.2148H109.09L108.5 89.2422H106.91L106.332 90.2344H105.918L107.66 87.2891L107.754 87.2695ZM107.707 87.8945L107.07 88.957H108.336L107.707 87.8945Z" fill="#0C2231"/>
<path d="M113.281 90.2344H110.547V87.2891H110.914V89.9648H112.629V87.2891H113V89.9648H113.633V90.6758H113.281V90.2344Z" fill="#0C2231"/>
<path d="M117.605 90.2344H117.215V87.9687L114.773 90.2344H114.691V87.2891H115.063V89.5898L117.523 87.2891H117.605V90.2344Z" fill="#0C2231"/>
<path d="M121.094 90.2344H120.723V88.8633H120.516L119.187 90.2344H118.75L120.074 88.8633C119.826 88.872 119.577 88.839 119.34 88.7656C119.186 88.7133 119.051 88.6185 118.949 88.4922C118.852 88.3716 118.8 88.2212 118.801 88.0664C118.799 87.975 118.816 87.8843 118.852 87.8001C118.888 87.716 118.941 87.6403 119.008 87.5781C119.157 87.4414 119.343 87.3517 119.543 87.3203C119.82 87.2858 120.1 87.2727 120.379 87.2812H121.094V90.2344ZM120.07 87.5703C119.888 87.5618 119.705 87.5789 119.527 87.6211C119.423 87.6518 119.331 87.713 119.262 87.7969C119.195 87.8705 119.158 87.9669 119.16 88.0664C119.16 88.1662 119.194 88.2629 119.258 88.3398C119.328 88.4281 119.426 88.4912 119.535 88.5195C119.715 88.5664 119.9 88.5861 120.086 88.5781H120.723V87.5742L120.07 87.5703Z" fill="#0C2231"/>
</svg>
